<svg width="120" height="120" viewBox="0 0 120 120" fill="none" xmlns="http://www.w3.org/2000/svg">
<circle cx="60" cy="60" r="60" fill="#DCFF09"/>
<rect x="30" y="30" width="60" height="60" rx="30" fill="#DCFF09"/>
<path d="M89.9823 60.3053C90.5699 44.8521 76.462 29.4227 60.0029 30.0166C43.8105 30.0166 30.6114 42.4884 30.0237 59.1175C29.6882 68.6137 32.9631 73.3709 36.4899 78.1221L38.8412 72.1831L39.3324 81.4477C39.7567 81.8765 40.228 82.3053 40.6994 82.7341V65.4866L45.0127 63.4855V85.9025C45.4605 86.1646 45.9084 86.4266 46.3798 86.6648V62.8423L50.693 60.8412V88.523C51.1409 88.6659 51.5887 88.8089 52.0601 88.9518V52.5034L56.3734 50.5023V89.8332C56.8212 89.8809 57.269 89.9285 57.7404 89.9762V39.3057L59.8853 37.2093L62.0537 39.3057V90C62.5486 89.9762 63.02 89.9285 63.515 89.8571V50.5023L67.8283 52.5034V88.9995C68.2761 88.8803 68.7475 88.7374 69.1953 88.5945V60.8651L73.5086 62.8662V86.7601C73.98 86.5219 74.4278 86.2599 74.8757 85.9978V63.5094L79.1889 65.5343V82.8771C79.6603 82.4721 80.1082 82.0433 80.556 81.6145V74.1342L84.8692 76.2306C88.2188 72.1831 89.9821 64.9731 89.9823 60.3053Z" fill="#040618"/>
<path d="M66.1177 18.0688C63.4934 17.7401 61.7142 15.4038 62.0661 12.7288C62.4163 10.0665 64.7409 8.25714 67.3653 8.58589C69.8207 8.89348 71.5334 10.7317 71.5513 13.1051L69.4596 12.8431C69.4105 11.5096 68.4896 10.4793 67.1644 10.3133C65.5664 10.1131 64.3263 11.2078 64.0928 12.9827C63.8577 14.7702 64.7725 16.1477 66.3705 16.3479C67.6957 16.5139 68.8422 15.7297 69.2478 14.4532L71.3395 14.7152C70.7045 17.0326 68.5732 18.3764 66.1177 18.0688Z" fill="#040618"/>
<path d="M75.7797 20.264C73.8765 19.5742 73.0084 17.5962 73.7152 15.739C74.4266 13.8698 76.4028 12.9361 78.306 13.6258C80.2093 14.3155 81.0819 16.2816 80.3705 18.1508C79.6637 20.008 77.683 20.9537 75.7797 20.264ZM76.3406 18.7901C77.1879 19.0972 78.1632 18.7007 78.6146 17.5145C79.0661 16.3282 78.5878 15.4187 77.7406 15.1116C76.8933 14.8046 75.9226 15.1891 75.4712 16.3753C75.0197 17.5615 75.4934 18.4831 76.3406 18.7901Z" fill="#040618"/>
<path d="M84.5885 20.0121L82.5855 23.1766L81.0365 22.2429L84.7122 16.4359L86.1386 17.2957L85.6155 18.1221C86.4149 17.8077 87.255 17.8183 88.0351 18.2885C89.2275 19.0072 89.5703 20.2655 88.6824 21.6683L86.3076 25.42L84.7697 24.4931L86.821 21.2525C87.3647 20.3934 87.3221 19.7067 86.6201 19.2835C86.0071 18.9141 85.1805 19.0769 84.5885 20.0121Z" fill="#040618"/>
<path d="M92.6402 28.3773L91.5902 29.5358C91.1091 29.4107 90.7344 29.2067 90.3321 28.8596C89.2528 27.9281 89.1225 26.7406 90.1638 25.5917L92.2637 23.2747L91.204 22.3602L92.2367 21.2208L93.2963 22.1353L94.6674 20.6225L96.0214 21.7911L94.6504 23.3038L96.1516 24.5994L95.119 25.7388L93.6177 24.4432L91.7955 26.4539C91.2575 27.0475 91.3153 27.5239 91.8058 27.9473C92.0609 28.1675 92.3485 28.3133 92.6402 28.3773Z" fill="#040618"/>
<path d="M95.6461 34.2855L96.317 33.7533C95.5196 33.8093 94.8174 33.4933 94.2143 32.7693C93.2971 31.6684 93.3464 30.4104 94.3628 29.6041C95.4198 28.7656 96.683 29.1472 97.972 30.6944C98.2198 30.992 98.4143 31.266 98.6463 31.6255L98.9716 31.3675C99.5814 30.8838 99.6562 30.2644 99.177 29.6891C98.6813 29.094 98.0281 29.0192 97.3769 29.4533L96.3441 28.2136C97.6604 27.3012 99.2089 27.5389 100.275 28.8184C101.431 30.2069 101.326 31.641 99.9948 32.6972L96.5798 35.4062L95.6461 34.2855ZM95.4858 30.8711C95.0284 31.2339 95.0082 31.7771 95.4379 32.2928C96.0245 32.997 96.7762 33.109 97.4063 32.6092L97.7926 32.3028C97.5707 31.9352 97.401 31.6909 97.2027 31.4529C96.55 30.6694 95.9737 30.4841 95.4858 30.8711Z" fill="#040618"/>
<path d="M99.2832 39.9591C98.325 38.227 98.9794 36.3425 100.858 35.3528C102.702 34.3813 104.735 34.9081 105.669 36.5952C106.534 38.1586 106.091 39.8879 104.537 40.9535L103.629 39.3113C104.403 38.8015 104.643 38.0507 104.251 37.3421C103.803 36.5323 102.837 36.3731 101.742 36.95C100.635 37.5329 100.247 38.3912 100.701 39.2122C101.099 39.9321 101.838 40.1382 102.73 39.7849L103.638 41.4271C101.844 42.1397 100.173 41.5675 99.2832 39.9591Z" fill="#040618"/>
<path d="M104.847 48.1876L103.345 48.6809C102.992 48.3384 102.771 47.9793 102.6 47.4826C102.14 46.1501 102.634 45.0573 104.124 44.568L107.128 43.5813L106.677 42.273L108.154 41.7878L108.605 43.0961L110.567 42.4519L111.143 44.1236L109.182 44.7678L109.821 46.6213L108.344 47.1065L107.705 45.253L105.098 46.1093C104.328 46.3621 104.135 46.8032 104.343 47.4089C104.452 47.7239 104.627 47.9901 104.847 48.1876Z" fill="#040618"/>
<path d="M107.681 57.8499L111.716 57.5442L111.856 59.3028L104.883 59.8312L104.754 58.2128L105.668 58.1435C105.025 57.8204 104.534 57.1012 104.465 56.2347C104.357 54.8711 105.126 53.8128 106.942 53.6753L111.382 53.3389L111.523 55.1102L107.435 55.4199C106.456 55.4941 106.062 55.9983 106.119 56.7119C106.17 57.3491 106.741 57.9212 107.681 57.8499Z" fill="#040618"/>
<path d="M106.433 68.4237C104.975 68.2633 104.202 67.0849 104.425 65.1543C104.648 63.2237 105.723 62.2487 107.288 62.2794L107.093 63.9687C106.376 63.9026 105.851 64.4494 105.75 65.3258C105.671 66.0117 105.832 66.5568 106.326 66.6112C106.769 66.6599 106.983 66.4005 107.188 65.7671L107.564 64.5735C107.926 63.3786 108.701 62.7178 109.781 62.8367C111.07 62.9785 111.843 64.1569 111.648 65.8462C111.451 67.5481 110.392 68.615 108.88 68.5773L109.076 66.888C109.76 66.899 110.234 66.4494 110.32 65.7001C110.395 65.0523 110.198 64.5932 109.755 64.5446C109.339 64.4987 109.137 64.7595 108.949 65.3563L108.551 66.6373C108.138 67.9296 107.435 68.534 106.433 68.4237Z" fill="#040618"/>
<path d="M107.348 77.5641L106.318 75.9253L107.429 75.2291L108.385 76.8406L109.565 75.3907L110.57 76.1586L109.322 77.6383L111.077 78.2054L110.576 79.4962L108.877 78.7857L108.805 80.7003L107.531 80.6255L107.633 78.7768L105.822 79.3644L105.463 78.1245L107.348 77.5641Z" fill="#040618"/>
<path d="M95.8977 86.1592C97.4951 84.1008 100.457 83.7563 102.66 85.3845C104.853 87.0049 105.306 89.8727 103.709 91.931C102.214 93.8569 99.728 94.3927 97.6089 93.2276L98.882 91.5871C100.092 92.2086 101.466 91.9413 102.273 90.902C103.245 89.6486 102.889 88.0544 101.427 86.9741C99.9544 85.8861 98.2747 85.9756 97.3021 87.229C96.4955 88.2683 96.6227 89.6289 97.5559 90.6071L96.2828 92.2477C94.5382 90.5577 94.4032 88.085 95.8977 86.1592Z" fill="#040618"/>
<path d="M89.1418 93.262C90.6984 91.9902 92.8893 92.234 94.1927 93.7531C95.5044 95.2819 95.3568 97.4196 93.8002 98.6914C92.2435 99.9632 90.061 99.7292 88.7493 98.2004C87.4459 96.6813 87.5851 94.5339 89.1418 93.262ZM90.176 94.4675C89.483 95.0336 89.353 96.0568 90.1854 97.027C91.0179 97.9972 92.0645 98.0423 92.7575 97.4762C93.4505 96.91 93.5889 95.8967 92.7565 94.9264C91.924 93.9562 90.869 93.9013 90.176 94.4675Z" fill="#040618"/>
<path d="M85.0117 100.854L83.1826 97.591L84.78 96.7384L88.1364 102.727L86.6655 103.512L86.1878 102.66C86.0727 103.493 85.6481 104.2 84.8436 104.63C83.614 105.286 82.3236 104.955 81.5128 103.508L79.3443 99.6396L80.9302 98.7931L82.8033 102.135C83.2998 103.021 83.9326 103.324 84.6566 102.938C85.2887 102.6 85.5522 101.819 85.0117 100.854Z" fill="#040618"/>
<path d="M73.5758 103.542L73.0648 102.078C73.4146 101.732 73.7818 101.515 74.2901 101.346C75.654 100.893 76.7756 101.371 77.2824 102.823L78.3043 105.751L79.6434 105.306L80.1459 106.746L78.8068 107.191L79.4741 109.102L77.763 109.671L77.0958 107.759L75.1987 108.39L74.6962 106.95L76.5932 106.319L75.7064 103.779C75.4446 103.028 74.9919 102.841 74.3719 103.047C74.0495 103.155 73.7773 103.326 73.5758 103.542Z" fill="#040618"/>
<path d="M66.8179 103.155L66.9574 103.987C67.3042 103.284 67.9344 102.847 68.8781 102.697C70.313 102.468 71.4069 103.135 71.6182 104.397C71.8379 105.709 70.8703 106.588 68.8537 106.91C68.4659 106.972 68.1256 107 67.6905 107.018L67.7581 107.421C67.8849 108.178 68.3984 108.55 69.1481 108.43C69.9237 108.306 70.3152 107.791 70.253 107.023L71.8689 106.766C72.0254 108.334 71.0439 109.526 69.3763 109.792C67.5665 110.081 66.3438 109.279 66.0671 107.626L65.3572 103.388L66.8179 103.155ZM69.9332 104.717C69.8381 104.15 69.3653 103.862 68.6931 103.97C67.7753 104.116 67.3018 104.697 67.4328 105.479L67.5131 105.958C67.9502 105.953 68.2518 105.931 68.562 105.881C69.5832 105.718 70.0346 105.323 69.9332 104.717Z" fill="#040618"/>
<path d="M59.9121 103.412C61.9286 103.462 63.2787 104.953 63.2244 107.036C63.1712 109.08 61.6919 110.539 59.7278 110.491C57.9076 110.446 56.5902 109.211 56.4155 107.366L58.3273 107.413C58.3953 108.323 58.9437 108.899 59.7687 108.919C60.7115 108.943 61.3334 108.204 61.365 106.99C61.397 105.763 60.827 105.007 59.8711 104.984C59.0331 104.963 58.4823 105.486 58.3532 106.416L56.4415 106.369C56.6999 104.496 58.0396 103.366 59.9121 103.412Z" fill="#040618"/>
<path d="M49.8365 104.043L50.1423 102.525C50.6222 102.396 51.0512 102.387 51.5781 102.488C52.9919 102.759 53.7195 103.72 53.4164 105.225L52.8049 108.26L54.193 108.526L53.8923 110.018L52.5042 109.752L52.105 111.734L50.3314 111.393L50.7306 109.412L48.7642 109.035L49.0648 107.542L51.0313 107.919L51.5619 105.286C51.7185 104.508 51.4218 104.125 50.7792 104.002C50.445 103.938 50.1214 103.954 49.8365 104.043Z" fill="#040618"/>
<path d="M39.8094 101.64L38.076 105.209L36.4426 104.454L39.438 98.286L40.9413 98.9812L40.5486 99.7897C41.1555 99.4056 42.039 99.3473 42.8439 99.7196C44.1104 100.305 44.669 101.483 43.8893 103.088L41.9821 107.016L40.3368 106.255L42.0926 102.639C42.5133 101.773 42.2605 101.19 41.5976 100.883C41.0058 100.609 40.2132 100.809 39.8094 101.64Z" fill="#040618"/>
<path d="M31.1017 95.3674C31.9692 94.213 33.4015 94.1442 35.0071 95.2931C36.6127 96.4419 36.9451 97.8368 36.1396 99.1466L34.7347 98.1413C35.1501 97.5669 34.9248 96.8509 34.1959 96.3293C33.6255 95.9212 33.0608 95.7865 32.7664 96.1782C32.5031 96.5287 32.627 96.8393 33.0883 97.3278L33.9629 98.2389C34.8453 99.1398 35.0474 100.124 34.4046 100.98C33.6378 102 32.2055 102.069 30.8006 101.064C29.3851 100.051 28.9633 98.6239 29.7484 97.363L31.1533 98.3682C30.8033 98.942 30.9674 99.5666 31.5906 100.013C32.1293 100.398 32.6356 100.459 32.899 100.109C33.1468 99.7789 33.0152 99.4786 32.5778 99.023L31.637 98.0487C30.6934 97.0565 30.5053 96.1611 31.1017 95.3674Z" fill="#040618"/>
<path d="M22.5107 91.6044L24.4799 91.5425L24.5495 92.8291L22.6409 92.8422L23.3476 94.5603L22.1664 95.0315L21.4668 93.2413L20.0928 94.4481L19.192 93.3837L20.6661 92.2952L18.9969 91.2865L19.6942 90.2437L21.2897 91.2456L21.6635 89.4192L22.9451 89.7291L22.5107 91.6044Z" fill="#040618"/>
<path d="M20.5165 77.6345C21.5584 80.0079 20.3987 82.6897 17.8582 83.7516C15.3297 84.8085 12.5522 83.7725 11.5104 81.3992C10.5356 79.1786 11.2893 76.8056 13.3758 75.5858L14.2062 77.4774C13.0537 78.1955 12.6114 79.4928 13.1375 80.6912C13.7719 82.1364 15.3679 82.6234 17.0536 81.9187C18.7513 81.2091 19.5031 79.7407 18.8687 78.2955C18.3426 77.0971 17.0683 76.5313 15.7353 76.8382L14.9049 74.9466C17.2733 74.3042 19.5417 75.414 20.5165 77.6345Z" fill="#040618"/>
<path d="M17.5512 68.39C17.9075 70.3405 16.601 72.0738 14.6022 72.4215C12.5906 72.7715 10.7636 71.5833 10.4072 69.6329C10.0509 67.6825 11.3445 65.9513 13.3562 65.6014C15.3549 65.2536 17.1948 66.4396 17.5512 68.39ZM15.9651 68.666C15.8064 67.7977 14.9616 67.1787 13.6849 67.4008C12.4083 67.6229 11.8476 68.4864 12.0062 69.3547C12.1649 70.2229 12.9969 70.8442 14.2735 70.6221C15.5501 70.4 16.1237 69.5342 15.9651 68.666Z" fill="#040618"/>
<path d="M12.8562 61.0772L16.6671 61.1514L16.6308 62.9277L9.63755 62.7916L9.67098 61.1559L10.6663 61.1752C9.98237 60.6633 9.56458 59.9521 9.58286 59.0575C9.61081 57.6901 10.5468 56.7623 12.2362 56.7952L16.7543 56.8831L16.7183 58.6467L12.8157 58.5707C11.7811 58.5506 11.1968 58.9355 11.1803 59.7406C11.166 60.4435 11.7299 61.0553 12.8562 61.0772Z" fill="#040618"/>
<path d="M16.1414 50.0601L17.6976 50.353C17.8319 50.8209 17.8425 51.2395 17.7408 51.754C17.4678 53.1346 16.4864 53.848 14.943 53.5575L11.8306 52.9715L11.5626 54.3269L10.0321 54.0388L10.3001 52.6834L8.26798 52.3008L8.61039 50.5689L10.6425 50.9514L11.0221 49.0312L12.5526 49.3194L12.173 51.2396L14.8739 51.748C15.6713 51.8981 16.0623 51.6073 16.1863 50.9797C16.2509 50.6534 16.2332 50.3377 16.1414 50.0601Z" fill="#040618"/>
<path d="M19.8415 44.5154L19.0315 44.2205C19.4848 44.8631 19.5611 45.6139 19.2268 46.4881C18.7184 47.8173 17.5819 48.413 16.3547 47.9661C15.0784 47.5013 14.7759 46.2451 15.4904 44.377C15.6278 44.0177 15.7714 43.7153 15.9716 43.338L15.579 43.195C14.8426 42.9269 14.2574 43.1776 13.9918 43.8721C13.717 44.5906 13.9816 45.1782 14.695 45.5062L14.1225 47.0031C12.6497 46.3575 12.0756 44.9342 12.6664 43.3895C13.3076 41.713 14.6281 41.0752 16.2357 41.6606L20.359 43.1623L19.8415 44.5154ZM16.9056 46.3795C17.4578 46.5806 17.948 46.3225 18.1861 45.6998C18.5113 44.8496 18.2296 44.1604 17.4688 43.8833L17.0025 43.7134C16.79 44.0863 16.6601 44.3528 16.5502 44.6402C16.1884 45.5862 16.3165 46.1649 16.9056 46.3795Z" fill="#040618"/>
<path d="M23.0199 38.5819C21.9727 40.2643 19.9756 40.6658 18.1508 39.5842C16.3596 38.5225 15.7978 36.5444 16.8178 34.9058C17.763 33.3873 19.5158 32.8858 21.2435 33.6556L20.2507 35.2506C19.4082 34.8559 18.6232 35.0337 18.1948 35.7219C17.7052 36.5085 18.0529 37.4025 19.1165 38.0329C20.1912 38.6699 21.1465 38.5632 21.6429 37.7657C22.0781 37.0666 21.8867 36.34 21.1239 35.7682L22.1167 34.1732C23.6536 35.3235 23.9923 37.0197 23.0199 38.5819Z" fill="#040618"/>
<path d="M27.4772 29.7344L28.6741 30.7482C28.5504 31.2188 28.3449 31.5863 27.9929 31.9821C27.0484 33.0439 25.8328 33.1822 24.6457 32.1768L22.2518 30.1493L21.3246 31.1918L20.1474 30.1948L21.0746 29.1523L19.5117 27.8286L20.6965 26.4964L22.2595 27.8202L23.5731 26.3433L24.7503 27.3403L23.4366 28.8172L25.514 30.5766C26.1273 31.096 26.615 31.0352 27.0443 30.5525C27.2676 30.3016 27.4143 30.0196 27.4772 29.7344Z" fill="#040618"/>
<path d="M34.5694 22.4396L32.2483 19.2041L33.7291 18.1925L37.7404 23.784L36.3776 24.715L35.8518 23.982C35.8937 24.6867 35.5085 25.4647 34.7788 25.9632C33.6306 26.7475 32.3054 26.6387 31.2612 25.1832L28.7072 21.623L30.1988 20.6042L32.55 23.8816C33.1133 24.6669 33.7583 24.7412 34.3592 24.3307C34.8957 23.9642 35.1103 23.1935 34.5694 22.4396Z" fill="#040618"/>
<path d="M44.4663 18.1567C45.065 19.4636 44.4173 20.7121 42.5997 21.505C40.7821 22.2979 39.3754 21.8894 38.6078 20.5582L40.1982 19.8644C40.5042 20.501 41.2533 20.6642 42.0784 20.3043C42.7241 20.0227 43.1235 19.6104 42.9204 19.167C42.7387 18.7703 42.4008 18.7216 41.7374 18.871L40.4932 19.1617C39.2544 19.4641 38.2775 19.1481 37.8338 18.1796C37.3046 17.0244 37.9523 15.7759 39.5427 15.0821C41.1451 14.3831 42.6248 14.7318 43.3591 16.0215L41.7686 16.7153C41.4309 16.1346 40.7934 15.9646 40.0879 16.2723C39.4781 16.5384 39.173 16.9374 39.3548 17.3342C39.5258 17.7076 39.8584 17.7445 40.4805 17.5992L41.8138 17.2836C43.1643 16.9745 44.0547 17.2582 44.4663 18.1567Z" fill="#040618"/>
<path d="M52.0863 12.7466L51.1618 14.4444L49.9833 13.8634L50.9211 12.2412L49.0421 11.9849L49.2107 10.7506L51.1502 11.0487L50.7608 9.28536L52.1551 9.05218L52.3896 10.8415L54.1166 9.93018L54.6968 11.0392L53.0125 11.8915L54.4503 13.1164L53.5373 14.0472L52.0863 12.7466Z" fill="#040618"/>
</svg>
