<svg width="140" height="140" viewBox="0 0 140 140" fill="none" xmlns="http://www.w3.org/2000/svg">
<foreignObject x="-30" y="-30" width="200" height="200"><div xmlns="http://www.w3.org/1999/xhtml" style="backdrop-filter:blur(15px);clip-path:url(#bgblur_0_351_4783_clip_path);height:100%;width:100%"></div></foreignObject><rect data-figma-bg-blur-radius="30" width="140" height="140" rx="70" fill="#040618"/>
<path fill-rule="evenodd" clip-rule="evenodd" d="M77.1419 60.6905C74.5215 63.3482 69.7462 63.3493 67.1247 60.6905L66.0499 59.6004L63.9003 61.7806L64.9751 62.8707C66.8818 64.8046 69.5065 65.7705 72.1322 65.7716L58.8703 79.2226L61.0199 81.4028L74.2818 67.9518C74.2829 70.615 75.2352 73.2771 77.1419 75.2109L78.2167 76.3011L80.3663 74.1208L79.2915 73.0307C76.6701 70.3719 76.6711 65.5285 79.2915 62.8708L80.3663 61.7806L78.2167 59.6004L77.1419 60.6905Z" fill="#DCFF09"/>
<path d="M78.2455 12.1284L73.5377 11.7293L73.3776 13.6185L77.6991 13.9848L77.5681 15.5299L73.2466 15.1636L73.0527 17.4511L77.9778 17.8686L77.8422 19.4681L71.1004 18.8966L71.8545 10L78.3791 10.5531L78.2455 12.1284Z" fill="white"/>
<path d="M78.7905 19.6695L81.7533 16.9348L80.4027 13.2787L82.4598 13.7656L83.0918 15.8821L84.5818 14.2678L86.5801 14.7407L83.729 17.3713L85.1447 21.1735L83.0522 20.6782L82.4002 18.4884L80.83 20.1522L78.7905 19.6695Z" fill="white"/>
<path d="M91.1489 19.9708C91.3317 19.496 91.3842 19.0337 91.3064 18.584C91.2323 18.1357 90.9522 17.818 90.466 17.6309C89.8819 17.406 89.3739 17.5285 88.942 17.9983C88.7158 18.2487 88.5157 18.6001 88.3416 19.0523C88.0659 19.7683 88.0625 20.3447 88.3314 20.7814C88.4923 21.038 88.7272 21.2258 89.0362 21.3448C89.4847 21.5175 89.8925 21.4754 90.2596 21.2187C90.6305 20.9633 90.9269 20.5474 91.1489 19.9708ZM91.4714 16.4018C92.1912 16.6789 92.6976 17.1789 92.9905 17.9018C93.2871 18.6261 93.2374 19.5027 92.8413 20.5315C92.4235 21.6168 91.8601 22.3497 91.1511 22.7302C90.4459 23.1121 89.7088 23.155 88.9401 22.8591C88.4501 22.6705 88.0903 22.3913 87.8605 22.0216C87.7356 21.8177 87.6384 21.5531 87.5689 21.2278L86.3328 24.4386L84.7387 23.8249L88.0444 15.2382L89.5877 15.8323L89.2373 16.7424C89.5137 16.5416 89.7796 16.4017 90.035 16.3226C90.499 16.1853 90.9778 16.2117 91.4714 16.4018Z" fill="white"/>
<path d="M93.8517 24.943L92.3101 24.1661L96.3281 16.1929L97.8698 16.9698L93.8517 24.943Z" fill="white"/>
<path d="M98.0835 26.0324C98.5097 26.303 98.9333 26.359 99.3543 26.2006C99.7753 26.0421 100.163 25.6833 100.518 25.1242C100.873 24.565 101.032 24.063 100.994 23.618C100.958 23.1695 100.727 22.8101 100.301 22.5395C99.8744 22.269 99.4491 22.2119 99.0247 22.3682C98.6058 22.5232 98.2189 22.8803 97.864 23.4394C97.5091 23.9986 97.3496 24.5024 97.3854 24.9508C97.4246 25.4014 97.6573 25.7619 98.0835 26.0324ZM102.047 26.0948C101.528 26.913 100.848 27.4643 100.007 27.7487C99.169 28.0296 98.2708 27.8661 97.3128 27.258C96.3547 26.6498 95.8244 25.9067 95.7218 25.0284C95.6214 24.1468 95.8309 23.2968 96.3502 22.4786C96.861 21.674 97.5388 21.1261 98.3837 20.8349C99.2285 20.5437 100.13 20.7022 101.088 21.3103C102.046 21.9184 102.573 22.6667 102.669 23.5552C102.765 24.4436 102.558 25.2902 102.047 26.0948Z" fill="white"/>
<path d="M107.888 26.434C107.913 26.4543 107.932 26.4723 107.945 26.4881C107.964 26.5033 108.002 26.5366 108.059 26.5879L106.95 27.9653C106.873 27.8874 106.802 27.8204 106.739 27.764C106.675 27.7077 106.623 27.663 106.582 27.6301C106.041 27.1944 105.536 27.0779 105.067 27.2807C104.803 27.3952 104.506 27.6584 104.174 28.0704L102.194 30.5281L100.84 29.4375L104.982 24.2957L106.265 25.3293L105.543 26.2256C106.027 26.05 106.397 25.9614 106.652 25.9597C107.073 25.9517 107.485 26.1098 107.888 26.434Z" fill="white"/>
<path d="M109.883 30.2974C109.602 30.0134 109.294 29.8805 108.96 29.8989C108.628 29.9201 108.291 30.0612 107.947 30.3223L109.835 32.2289C110.139 31.8878 110.287 31.5458 110.277 31.2031C110.273 30.8604 110.142 30.5585 109.883 30.2974ZM110.894 29.2958C111.281 29.686 111.556 30.11 111.719 30.5677C111.883 31.0253 111.907 31.5123 111.793 32.0286C111.697 32.4879 111.492 32.9266 111.179 33.3448C110.995 33.5895 110.698 33.9093 110.287 34.3042L107.108 31.0934C106.654 31.5767 106.471 32.0512 106.557 32.5171C106.607 32.8029 106.75 33.0648 106.986 33.303C107.236 33.5555 107.511 33.6896 107.81 33.7053C107.973 33.7147 108.156 33.6842 108.359 33.6138L109.599 34.8663C109.29 35.1103 108.864 35.2453 108.321 35.2712C107.467 35.3213 106.682 34.9848 105.966 34.2617C105.375 33.6649 105.046 32.948 104.978 32.111C104.911 31.274 105.311 30.4265 106.177 29.5684C106.989 28.7642 107.815 28.3528 108.655 28.334C109.497 28.3181 110.244 28.6387 110.894 29.2958Z" fill="white"/>
<path d="M119.361 41.4544C119.755 41.2094 119.972 40.9301 120.01 40.6165C120.05 40.3062 119.954 39.9642 119.722 39.5902L118.805 38.1134L116.571 39.5002L117.489 40.9771C117.721 41.351 117.992 41.5845 118.301 41.6774C118.613 41.7737 118.966 41.6994 119.361 41.4544ZM120.346 43.0175C119.45 43.5735 118.677 43.7402 118.025 43.5174C117.373 43.2947 116.787 42.763 116.265 41.9226L115.264 40.3119L112.537 42.0055L111.559 40.4309L119.144 35.7207L121.196 39.0243C121.669 39.7859 121.85 40.5146 121.74 41.2102C121.631 41.9059 121.166 42.5084 120.346 43.0175Z" fill="white"/>
<path d="M123.397 48.1227C123.41 48.1521 123.419 48.1768 123.424 48.1969C123.434 48.2189 123.453 48.2657 123.481 48.3372L121.872 49.0718C121.838 48.9676 121.805 48.8761 121.774 48.7973C121.742 48.7184 121.715 48.6552 121.694 48.6074C121.405 47.9756 121.006 47.6452 120.495 47.6164C120.208 47.6008 119.824 47.7029 119.343 47.9226L116.472 49.2334L115.75 47.6521L121.756 44.9097L122.441 46.4084L121.394 46.8864C121.905 46.946 122.275 47.0323 122.504 47.1452C122.884 47.3267 123.182 47.6525 123.397 48.1227Z" fill="white"/>
<path d="M119.622 54.0882C119.779 54.5681 120.07 54.881 120.495 55.0269C120.921 55.1728 121.448 55.1431 122.078 54.9379C122.708 54.7327 123.15 54.4465 123.404 54.0791C123.662 53.7105 123.712 53.2862 123.556 52.8063C123.4 52.3264 123.108 52.0115 122.681 51.8618C122.259 51.7147 121.734 51.7437 121.104 51.9489C120.474 52.1541 120.031 52.441 119.773 52.8096C119.516 53.1821 119.466 53.6082 119.622 54.0882ZM122.639 56.6599C121.718 56.9602 120.843 56.9524 120.013 56.6366C119.188 56.3194 118.599 55.6214 118.248 54.5425C117.896 53.4636 117.96 52.5529 118.44 51.8103C118.924 51.0665 119.627 50.5445 120.549 50.2442C121.455 49.9489 122.326 49.9579 123.163 50.2713C124 50.5847 124.594 51.2808 124.946 52.3597C125.297 53.4386 125.227 54.3512 124.736 55.0975C124.244 55.8439 123.545 56.3647 122.639 56.6599Z" fill="white"/>
<path d="M127.174 58.6706L126.805 56.984L128.362 56.644L128.73 58.3305L127.174 58.6706ZM118.172 58.021C118.185 58.1174 118.195 58.1853 118.204 58.2248C118.209 58.2651 118.214 58.301 118.221 58.3326C118.257 58.4983 118.326 58.6135 118.427 58.6782C118.525 58.7478 118.69 58.7571 118.923 58.7063L126.006 57.1586L126.375 58.8451L119.262 60.3993C118.611 60.5415 118.102 60.5185 117.734 60.3301C117.366 60.1418 117.1 59.6728 116.937 58.9233C116.925 58.872 116.911 58.7946 116.892 58.6912C116.875 58.5917 116.851 58.4665 116.823 58.3158L118.172 58.021Z" fill="white"/>
<path d="M125.83 63.3088C125.783 62.9117 125.623 62.6175 125.348 62.4261C125.074 62.2387 124.721 62.1419 124.289 62.1356L124.602 64.8007C125.052 64.7195 125.379 64.5408 125.582 64.2649C125.79 63.9924 125.873 63.6738 125.83 63.3088ZM127.244 63.1428C127.308 63.6883 127.263 64.1916 127.11 64.6528C126.956 65.1139 126.676 65.5128 126.268 65.8493C125.909 66.1517 125.478 66.3711 124.973 66.5076C124.678 66.587 124.247 66.6559 123.68 66.7142L123.153 62.2263C122.498 62.3275 122.061 62.5882 121.842 63.0083C121.706 63.2643 121.657 63.5587 121.696 63.8916C121.737 64.2445 121.871 64.5195 122.098 64.7165C122.22 64.8242 122.383 64.9128 122.586 64.9824L122.792 66.7331C122.398 66.7346 121.979 66.5785 121.535 66.2646C120.832 65.7779 120.421 65.0293 120.302 64.0186C120.204 63.1844 120.386 62.4169 120.849 61.7161C121.312 61.0153 122.149 60.5938 123.36 60.4517C124.495 60.3184 125.399 60.503 126.072 61.0055C126.745 61.5119 127.136 62.2244 127.244 63.1428Z" fill="white"/>
<path d="M125.065 72.5756C125.311 72.5474 125.535 72.4684 125.735 72.3385C126.005 72.1492 126.143 71.8507 126.15 71.4429C126.16 70.8615 125.878 70.4589 125.304 70.2351C124.999 70.1169 124.592 70.0534 124.083 70.0448C123.599 70.0366 123.208 70.0866 122.912 70.1946C122.359 70.3913 122.078 70.7742 122.068 71.3436C122.062 71.7473 122.166 72.0358 122.381 72.2091C122.596 72.3824 122.877 72.4901 123.224 72.5323L123.194 74.2947C122.67 74.2455 122.176 74.0473 121.713 73.7002C120.968 73.1464 120.604 72.3386 120.622 71.2767C120.64 70.2148 120.968 69.4388 121.606 68.9488C122.244 68.4588 123.066 68.2223 124.072 68.2393C125.206 68.2585 126.084 68.55 126.704 69.1138C127.325 69.6776 127.627 70.4461 127.61 71.4191C127.596 72.2468 127.399 72.92 127.019 73.4386C126.638 73.9613 125.977 74.2631 125.035 74.3441L125.065 72.5756Z" fill="white"/>
<path d="M125.985 74.9369L127.207 75.0785L127.101 75.9931L128.93 76.2051L128.733 77.9019L126.904 77.6899L126.781 78.7549L125.559 78.6133L125.683 77.5483L122.217 77.1465C121.948 77.1153 121.776 77.1299 121.699 77.1902C121.627 77.2509 121.571 77.4558 121.531 77.8048C121.525 77.8569 121.518 77.9111 121.512 77.9673C121.509 78.0279 121.506 78.0865 121.504 78.1431L120.222 77.9946L120.286 77.1788C120.352 76.3652 120.556 75.8279 120.9 75.5669C121.119 75.3972 121.433 75.336 121.842 75.3834L125.879 75.8515L125.985 74.9369Z" fill="white"/>
<path d="M121.968 80.3576C121.661 80.328 121.431 80.3587 121.279 80.4497C121.009 80.6101 120.812 80.9724 120.69 81.5367C120.618 81.8682 120.61 82.1414 120.667 82.3562C120.723 82.5749 120.849 82.7056 121.047 82.7485C121.236 82.7896 121.397 82.7419 121.53 82.6054C121.663 82.469 121.96 81.9198 122.421 80.9578C122.761 80.2671 123.099 79.8013 123.437 79.5605C123.77 79.3188 124.189 79.2527 124.694 79.3623C125.29 79.4916 125.751 79.8354 126.076 80.3935C126.404 80.9565 126.476 81.6622 126.292 82.5106C126.118 83.3157 125.814 83.9357 125.381 84.3706C124.95 84.8103 124.333 84.9821 123.527 84.8858L123.893 83.1987C124.115 83.2221 124.3 83.1982 124.448 83.127C124.717 82.9911 124.9 82.7003 124.997 82.2543C125.076 81.8873 125.076 81.6125 124.996 81.4298C124.915 81.251 124.797 81.145 124.643 81.1116C124.45 81.0696 124.292 81.1221 124.169 81.269C124.042 81.4151 123.759 81.9673 123.32 82.9256C123.017 83.5623 122.669 84.0136 122.276 84.2797C121.881 84.541 121.44 84.619 120.955 84.5137C120.316 84.375 119.845 84.0227 119.542 83.457C119.242 82.8961 119.2 82.1184 119.416 81.1239C119.636 80.1097 120.011 79.4061 120.543 79.0132C121.078 78.6251 121.676 78.503 122.339 78.6468L121.968 80.3576Z" fill="white"/>
<path d="M124.921 91.1264L124.05 92.1334L125.396 92.6997L124.989 93.6656L123.644 93.0992L123.532 94.4258L122.59 94.3381L122.722 92.9938L121.285 93.3022L121.077 92.3737L122.454 92.0395L121.74 90.7994L122.549 90.2986L123.331 91.5479L124.2 90.5138L124.921 91.1264Z" fill="white"/>
<path d="M115.998 105.868L118.68 101.978L117.119 100.902L114.657 104.473L113.381 103.592L115.842 100.022L113.952 98.7187L111.147 102.788L109.825 101.877L113.665 96.3065L121.016 101.374L117.3 106.765L115.998 105.868Z" fill="white"/>
<path d="M109.16 102.623L110.066 106.552L113.911 107.192L112.468 108.737L110.317 108.237L110.98 110.331L109.578 111.832L108.707 108.052L104.703 107.396L106.171 105.824L108.396 106.344L107.729 104.155L109.16 102.623Z" fill="white"/>
<path d="M102.79 113.204C103.113 113.598 103.489 113.872 103.918 114.026C104.344 114.183 104.759 114.097 105.162 113.767C105.646 113.37 105.791 112.868 105.595 112.26C105.49 111.94 105.283 111.592 104.976 111.217C104.489 110.624 103.99 110.336 103.477 110.354C103.175 110.367 102.896 110.479 102.639 110.688C102.268 110.993 102.103 111.368 102.145 111.814C102.183 112.263 102.399 112.726 102.79 113.204ZM105.734 115.248C105.137 115.737 104.452 115.93 103.679 115.828C102.903 115.728 102.165 115.251 101.467 114.399C100.729 113.499 100.371 112.647 100.39 111.843C100.406 111.041 100.733 110.379 101.37 109.857C101.776 109.524 102.197 109.349 102.632 109.332C102.871 109.324 103.149 109.37 103.466 109.471L101.285 106.81L102.606 105.727L108.439 112.843L107.16 113.892L106.541 113.137C106.58 113.477 106.57 113.777 106.512 114.038C106.402 114.509 106.143 114.913 105.734 115.248Z" fill="white"/>
<path d="M97.1322 113.101L98.5685 112.143L103.521 119.572L102.085 120.53L97.1322 113.101Z" fill="white"/>
<path d="M94.1029 116.242C93.6574 116.479 93.3997 116.82 93.3299 117.264C93.2601 117.709 93.3809 118.223 93.6923 118.808C94.0036 119.392 94.3622 119.778 94.7681 119.964C95.1759 120.154 95.6025 120.131 96.048 119.893C96.4935 119.656 96.753 119.314 96.8263 118.868C96.8981 118.427 96.7782 117.914 96.4669 117.33C96.1555 116.745 95.7959 116.358 95.3881 116.168C94.9768 115.98 94.5484 116.005 94.1029 116.242ZM92.0938 119.659C91.6381 118.804 91.4939 117.941 91.661 117.069C91.8301 116.201 92.4154 115.5 93.4169 114.967C94.4184 114.433 95.3264 114.339 96.141 114.683C96.9575 115.03 97.5936 115.631 98.0493 116.487C98.4974 117.328 98.6397 118.188 98.4763 119.066C98.313 119.945 97.7305 120.651 96.729 121.184C95.7275 121.718 94.8166 121.807 93.9963 121.453C93.176 121.098 92.5419 120.5 92.0938 119.659Z" fill="white"/>
<path d="M88.9035 124.574C88.8734 124.586 88.8483 124.594 88.828 124.597C88.8055 124.606 88.7578 124.623 88.6849 124.647L88.0355 123.002C88.1414 122.973 88.2345 122.945 88.3149 122.918C88.3952 122.89 88.4598 122.867 88.5086 122.848C89.1547 122.593 89.5055 122.211 89.5611 121.703C89.5916 121.417 89.5098 121.029 89.3156 120.537L88.1569 117.601L89.7739 116.963L92.198 123.104L90.6655 123.709L90.243 122.639C90.1567 123.146 90.0511 123.511 89.9264 123.734C89.7252 124.104 89.3843 124.384 88.9035 124.574Z" fill="white"/>
<path d="M84.5558 124.397C84.9419 124.293 85.2097 124.091 85.3592 123.792C85.5049 123.493 85.5495 123.13 85.493 122.702L82.9015 123.398C83.0472 123.832 83.2713 124.129 83.5739 124.29C83.8736 124.456 84.2009 124.492 84.5558 124.397ZM84.925 125.771C84.3946 125.914 83.8902 125.943 83.4117 125.858C82.9331 125.773 82.4978 125.554 82.1057 125.199C81.7545 124.888 81.4748 124.492 81.2666 124.013C81.1451 123.732 81.0144 123.316 80.8745 122.764L85.2385 121.591C85.0433 120.958 84.722 120.564 84.2746 120.408C84.0015 120.31 83.7032 120.304 83.3795 120.391C83.0363 120.483 82.7836 120.656 82.6215 120.908C82.5328 121.045 82.4687 121.219 82.4293 121.43L80.727 121.888C80.6682 121.498 80.762 121.061 81.0082 120.576C81.3877 119.81 82.0688 119.294 83.0516 119.03C83.8628 118.812 84.6486 118.881 85.4091 119.238C86.1695 119.594 86.708 120.36 87.0243 121.538C87.3208 122.642 87.2693 123.563 86.8698 124.302C86.4664 125.042 85.8181 125.531 84.925 125.771Z" fill="white"/>
<path d="M70.1554 127.093C70.1724 127.558 70.3076 127.884 70.561 128.073C70.8104 128.262 71.155 128.348 71.5949 128.332L73.3322 128.268L73.236 125.641L71.4987 125.705C71.0588 125.721 70.7217 125.84 70.4874 126.063C70.2491 126.286 70.1384 126.629 70.1554 127.093ZM68.3096 127.173C68.2711 126.12 68.5101 125.366 69.0269 124.91C69.5436 124.455 70.2963 124.209 71.285 124.173L73.1797 124.104L73.0622 120.895L74.9145 120.827L75.2412 129.75L71.355 129.892C70.4591 129.925 69.7364 129.721 69.1869 129.281C68.6374 128.84 68.3449 128.138 68.3096 127.173Z" fill="white"/>
<path d="M62.2912 127.291C62.259 127.288 62.233 127.284 62.2133 127.278C62.1892 127.276 62.1391 127.269 62.063 127.258L62.2224 125.497C62.3299 125.519 62.4257 125.536 62.5098 125.547C62.5939 125.559 62.662 125.567 62.7143 125.572C63.4061 125.634 63.891 125.451 64.169 125.022C64.3246 124.781 64.4263 124.397 64.4739 123.87L64.7583 120.727L66.4897 120.883L65.8948 127.459L64.2539 127.311L64.3576 126.164C64.0525 126.579 63.7942 126.858 63.5825 127.001C63.2364 127.241 62.806 127.338 62.2912 127.291Z" fill="white"/>
<path d="M59.0111 121.065C58.5166 120.964 58.1008 121.062 57.7635 121.36C57.4263 121.658 57.1911 122.131 57.0581 122.78C56.925 123.428 56.9553 123.954 57.1489 124.356C57.3418 124.763 57.6854 125.017 58.1799 125.118C58.6744 125.22 59.0922 125.122 59.4334 124.825C59.7699 124.531 60.0046 124.06 60.1377 123.411C60.2708 122.762 60.2409 122.235 60.048 121.828C59.8512 121.421 59.5056 121.167 59.0111 121.065ZM55.2838 122.416C55.4786 121.466 55.9183 120.709 56.6029 120.145C57.2867 119.584 58.1845 119.418 59.2961 119.646C60.4077 119.874 61.1674 120.38 61.5754 121.165C61.9826 121.953 62.0888 122.822 61.8941 123.771C61.7026 124.705 61.2637 125.458 60.5775 126.03C59.8912 126.603 58.9923 126.775 57.8807 126.547C56.7691 126.319 56.0105 125.807 55.6049 125.01C55.1994 124.214 55.0924 123.349 55.2838 122.416Z" fill="white"/>
<path d="M51.2849 125.36L52.9329 125.874L52.4585 127.395L50.8105 126.88L51.2849 125.36ZM56.3025 117.858C56.2124 117.821 56.1481 117.797 56.1095 117.785C56.0722 117.769 56.0381 117.756 56.0072 117.746C55.8453 117.696 55.7113 117.698 55.605 117.754C55.4962 117.805 55.4063 117.944 55.3353 118.171L53.1764 125.093L51.5283 124.579L53.6963 117.628C53.8947 116.992 54.1667 116.561 54.5123 116.335C54.8579 116.108 55.3969 116.109 56.1293 116.338C56.1794 116.353 56.254 116.379 56.353 116.414C56.4482 116.448 56.5685 116.49 56.7137 116.539L56.3025 117.858Z" fill="white"/>
<path d="M47.9041 121.89C48.2721 122.046 48.6073 122.052 48.9095 121.909C49.2081 121.763 49.467 121.505 49.6862 121.133L47.216 120.085C47.0638 120.516 47.0572 120.888 47.1962 121.201C47.3299 121.517 47.5658 121.747 47.9041 121.89ZM47.3481 123.2C46.8425 122.986 46.4274 122.698 46.1026 122.336C45.7779 121.975 45.5703 121.534 45.4799 121.013C45.395 120.551 45.4182 120.068 45.5494 119.562C45.6268 119.266 45.7805 118.857 46.0103 118.336L50.1701 120.101C50.4065 119.482 50.3964 118.973 50.1399 118.575C49.9853 118.329 49.7537 118.141 49.4452 118.01C49.118 117.872 48.8128 117.852 48.5295 117.951C48.3754 118.004 48.2177 118.101 48.0565 118.244L46.4338 117.555C46.6277 117.212 46.9708 116.925 47.4632 116.696C48.2344 116.325 49.0884 116.339 50.0252 116.736C50.7984 117.065 51.3749 117.603 51.7545 118.352C52.1342 119.101 52.0859 120.037 51.6095 121.159C51.1631 122.211 50.555 122.905 49.7852 123.241C49.0118 123.575 48.1994 123.562 47.3481 123.2Z" fill="white"/>
<path d="M40.2753 116.653C40.1773 116.881 40.135 117.114 40.1485 117.352C40.179 117.68 40.3696 117.949 40.7202 118.157C41.2202 118.454 41.7096 118.409 42.1886 118.022C42.4425 117.816 42.6994 117.494 42.9593 117.056C43.2068 116.64 43.3573 116.276 43.4106 115.965C43.514 115.387 43.321 114.953 42.8315 114.662C42.4843 114.456 42.1821 114.403 41.9249 114.504C41.6678 114.605 41.4348 114.796 41.2262 115.076L39.7108 114.175C40.0136 113.745 40.4305 113.415 40.9614 113.185C41.8123 112.812 42.6943 112.897 43.6074 113.439C44.5204 113.982 45.0313 114.652 45.1401 115.449C45.2488 116.247 45.0464 117.077 44.5329 117.942C43.9533 118.917 43.2648 119.535 42.4674 119.794C41.67 120.053 40.853 119.934 40.0163 119.437C39.3046 119.014 38.8179 118.509 38.5564 117.921C38.2913 117.332 38.3574 116.608 38.7547 115.749L40.2753 116.653Z" fill="white"/>
<path d="M37.801 116.302L37.0721 117.292L36.3306 116.746L35.239 118.229L33.8633 117.217L34.9549 115.734L34.0914 115.098L34.8203 114.108L35.6838 114.743L37.7521 111.933C37.9124 111.715 37.9853 111.559 37.9708 111.463C37.9538 111.37 37.8038 111.219 37.5209 111.011C37.4786 110.98 37.4347 110.948 37.3892 110.914C37.338 110.881 37.2884 110.85 37.2405 110.82L38.0053 109.781L38.6818 110.241C39.3555 110.702 39.7206 111.146 39.7769 111.574C39.8157 111.848 39.713 112.151 39.4689 112.482L37.0595 115.756L37.801 116.302Z" fill="white"/>
<path d="M35.0581 110.1C35.2364 109.847 35.3238 109.633 35.3202 109.456C35.315 109.141 35.0979 108.791 34.6686 108.405C34.4165 108.178 34.1831 108.036 33.9685 107.978C33.7509 107.918 33.5746 107.963 33.4395 108.113C33.3098 108.257 33.2713 108.421 33.3238 108.604C33.3763 108.787 33.7059 109.317 34.3125 110.195C34.7436 110.833 34.9799 111.358 35.0217 111.77C35.0661 112.18 34.9154 112.576 34.5696 112.961C34.1617 113.414 33.6348 113.643 32.9889 113.649C32.3372 113.654 31.6887 113.367 31.0434 112.786C30.4311 112.235 30.0435 111.663 29.8809 111.071C29.7125 110.48 29.8699 109.858 30.3531 109.207L31.6363 110.361C31.5058 110.543 31.4348 110.715 31.4234 110.879C31.4078 111.18 31.5695 111.483 31.9087 111.788C32.1879 112.039 32.4267 112.176 32.6251 112.197C32.8205 112.215 32.9708 112.166 33.0762 112.048C33.2086 111.901 33.2414 111.738 33.1748 111.559C33.1109 111.376 32.7718 110.856 32.1577 109.999C31.7555 109.42 31.5362 108.894 31.4999 108.421C31.4693 107.948 31.6201 107.527 31.9524 107.158C32.39 106.672 32.9295 106.437 33.571 106.455C34.2067 106.473 34.9028 106.823 35.6592 107.503C36.4306 108.198 36.855 108.873 36.9324 109.529C37.0042 110.186 36.8131 110.767 36.3593 111.271L35.0581 110.1Z" fill="white"/>
<path d="M24.2544 107.347L23.8091 106.092L22.652 106.982L22.013 106.151L23.1701 105.261L22.0718 104.509L22.6136 103.733L23.7171 104.512L24.1592 103.11L25.0688 103.388L24.6796 104.75L26.1103 104.742L26.1461 105.693L24.6736 105.756L25.1434 107.022L24.2544 107.347Z" fill="white"/>
<path d="M15.8447 92.3212L17.9045 96.5732L19.6108 95.7466L17.72 91.8435L19.1155 91.1674L21.0063 95.0706L23.0724 94.0697L20.9175 89.6214L22.3621 88.9216L25.3119 95.0108L17.2766 98.9033L14.4219 93.0104L15.8447 92.3212Z" fill="white"/>
<path d="M22.0465 87.9868L18.1837 86.8309L15.726 89.856L15.0968 87.8378L16.596 86.2156L14.4477 85.756L13.8364 83.7957L17.5526 84.9084L20.1028 81.753L20.7429 83.8058L19.1909 85.4826L21.4226 85.9859L22.0465 87.9868Z" fill="white"/>
<path d="M16.0079 77.1973C15.5062 77.282 15.0817 77.4724 14.7344 77.7686C14.3865 78.0608 14.2559 78.4637 14.3426 78.9774C14.4468 79.5945 14.8111 79.9692 15.4354 80.1013C15.7662 80.1683 16.1705 80.1615 16.6483 80.0808C17.4049 79.9531 17.9025 79.6623 18.1412 79.2083C18.28 78.9392 18.3219 78.6413 18.2668 78.3148C18.1868 77.841 17.9428 77.5116 17.5347 77.3265C17.1261 77.1375 16.6171 77.0944 16.0079 77.1973ZM12.7727 78.7387C12.6443 77.9782 12.8165 77.2877 13.2892 76.6673C13.7612 76.0429 14.5407 75.639 15.6278 75.4554C16.7746 75.2618 17.6923 75.3731 18.3809 75.7892C19.0689 76.2013 19.4815 76.8136 19.6186 77.6259C19.706 78.1435 19.6492 78.5954 19.4482 78.9815C19.3365 79.1929 19.1583 79.4113 18.9138 79.6369L22.3064 79.0641L22.5908 80.7484L13.5181 82.2802L13.2428 80.6497L14.2044 80.4873C13.8908 80.3519 13.6349 80.1944 13.4366 80.0149C13.0821 79.6857 12.8608 79.2603 12.7727 78.7387Z" fill="white"/>
<path d="M18.9073 72.3565L19.0264 74.0788L10.1191 74.6946L10.0001 72.9724L18.9073 72.3565Z" fill="white"/>
<path d="M17.6817 68.0866C17.6967 67.582 17.5285 67.1892 17.1773 66.9082C16.826 66.6271 16.3194 66.4767 15.6575 66.4571C14.9955 66.4375 14.4829 66.5577 14.1197 66.8176C13.7524 67.0774 13.5613 67.4596 13.5464 67.9642C13.5315 68.4687 13.6995 68.8636 14.0507 69.1487C14.3979 69.4296 14.9024 69.5799 15.5644 69.5995C16.2264 69.6191 16.741 69.499 17.1083 69.2392C17.4756 68.9754 17.6668 68.5912 17.6817 68.0866ZM15.7111 64.6468C16.6798 64.6755 17.5011 64.9786 18.1748 65.556C18.8445 66.1334 19.1626 66.9892 19.129 68.1234C19.0954 69.2576 18.7273 70.0931 18.0246 70.6298C17.3178 71.1664 16.4801 71.4204 15.5114 71.3917C14.5588 71.3635 13.7416 71.0605 13.0597 70.4828C12.3779 69.9051 12.0538 69.0491 12.0874 67.9149C12.121 66.7807 12.4952 65.9454 13.21 65.409C13.9248 64.8727 14.7585 64.6186 15.7111 64.6468Z" fill="white"/>
<path d="M13.0201 59.4361C13.0247 59.4041 13.0304 59.3784 13.0373 59.359C13.0407 59.335 13.0499 59.2854 13.0647 59.21L14.8156 59.4604C14.7882 59.5667 14.7665 59.6615 14.7505 59.7448C14.7345 59.8282 14.7228 59.8959 14.7153 59.9479C14.617 60.6354 14.7748 61.1292 15.1888 61.4291C15.4217 61.597 15.8001 61.7184 16.3237 61.7933L19.4478 62.2402L19.2016 63.9612L12.6657 63.0262L12.899 61.3952L14.0383 61.5582C13.6403 61.232 13.3754 60.9596 13.2435 60.7408C13.0214 60.3827 12.9469 59.9478 13.0201 59.4361Z" fill="white"/>
<path d="M15.3247 55.7513C15.2238 56.1382 15.2664 56.4707 15.4526 56.7488C15.6398 57.023 15.9333 57.2415 16.3332 57.4043L17.0107 54.8078C16.5621 54.7199 16.1928 54.7676 15.903 54.9507C15.6102 55.1289 15.4175 55.3958 15.3247 55.7513ZM13.9474 55.3919C14.086 54.8605 14.3106 54.4079 14.621 54.034C14.9314 53.6601 15.3377 53.3905 15.8399 53.2252C16.2841 53.074 16.766 53.0266 17.2856 53.0829C17.5898 53.1163 18.0164 53.2089 18.5653 53.3604L17.4244 57.7328C18.0713 57.8766 18.5732 57.7926 18.93 57.4809C19.1503 57.2921 19.3028 57.0356 19.3875 56.7113C19.4772 56.3675 19.4524 56.0626 19.3131 55.7967C19.2382 55.6519 19.1187 55.5102 18.9546 55.3714L19.3996 53.6658C19.7674 53.8077 20.1008 54.1054 20.3998 54.559C20.8783 55.2682 20.9891 56.1151 20.7322 57.0997C20.5201 57.9125 20.0712 58.5612 19.3855 59.0458C18.6998 59.5305 17.767 59.6188 16.5869 59.3109C15.4811 59.0224 14.7061 58.5218 14.2619 57.8091C13.8187 57.0924 13.7139 56.2867 13.9474 55.3919Z" fill="white"/>
<path d="M20.1171 41.9001C19.7057 41.6847 19.3552 41.6402 19.0656 41.7666C18.7779 41.8894 18.532 42.1458 18.3278 42.5357L17.5212 44.0757L19.85 45.2954L20.6566 43.7554C20.8608 43.3654 20.9243 43.0135 20.8471 42.6996C20.7718 42.3821 20.5285 42.1156 20.1171 41.9001ZM20.9635 40.2579C21.8972 40.7469 22.4335 41.3286 22.5726 42.0032C22.7116 42.6777 22.5516 43.4532 22.0926 44.3297L21.213 46.0092L24.057 47.4986L23.197 49.1406L15.2876 44.9983L17.0918 41.5533C17.5077 40.7592 18.0432 40.2328 18.6983 39.9742C19.3535 39.7155 20.1085 39.8101 20.9635 40.2579Z" fill="white"/>
<path d="M23.801 35.051C23.8195 35.0245 23.8362 35.0041 23.851 34.9899C23.8649 34.97 23.8954 34.9297 23.9427 34.8691L25.3932 35.8813C25.3208 35.9638 25.2587 36.0387 25.2069 36.1059C25.1551 36.1731 25.1141 36.2283 25.0841 36.2713C24.6866 36.8409 24.6051 37.3528 24.8397 37.807C24.9721 38.0619 25.2552 38.3407 25.689 38.6434L28.277 40.4494L27.2822 41.875L21.8677 38.0967L22.8105 36.7456L23.7543 37.4042C23.5459 36.9337 23.4321 36.5711 23.4128 36.3164C23.3758 35.8967 23.5052 35.4749 23.801 35.051Z" fill="white"/>
<path d="M30.8655 35.2538C31.199 34.8748 31.3202 34.4651 31.2292 34.0246C31.1381 33.584 30.8441 33.145 30.3469 32.7074C29.8498 32.2699 29.3784 32.0353 28.9329 32.0036C28.4844 31.9693 28.0933 32.1416 27.7599 32.5205C27.4264 32.8994 27.3038 33.3107 27.3922 33.7542C27.4802 34.1921 27.7728 34.6298 28.2699 35.0674C28.7671 35.5049 29.2399 35.7409 29.6885 35.7752C30.1397 35.8065 30.532 35.6327 30.8655 35.2538ZM31.5435 31.3479C32.271 31.9881 32.7099 32.7456 32.8601 33.6201C33.0072 34.492 32.706 35.3538 31.9563 36.2057C31.2066 37.0575 30.39 37.4658 29.5065 37.4306C28.62 37.3927 27.8129 37.0536 27.0854 36.4133C26.37 35.7837 25.9341 35.0289 25.7779 34.1491C25.6216 33.2692 25.9183 32.4033 26.668 31.5515C27.4177 30.6997 28.2388 30.2954 29.1314 30.3386C30.024 30.3818 30.8281 30.7182 31.5435 31.3479Z" fill="white"/>
<path d="M30.9312 26.4461L29.6693 27.6241L28.5822 26.4596L29.8441 25.2816L30.9312 26.4461ZM34.9694 34.5178C35.0457 34.4576 35.0987 34.4137 35.1282 34.3861C35.1605 34.3615 35.1884 34.3382 35.212 34.3161C35.336 34.2004 35.4 34.0826 35.4042 33.9627C35.414 33.8431 35.3376 33.6962 35.175 33.522L30.2273 28.2219L31.4892 27.0438L36.4576 32.3661C36.9123 32.8532 37.1526 33.3029 37.1784 33.7152C37.2042 34.1275 36.9367 34.5954 36.3758 35.119C36.3375 35.1548 36.2785 35.2071 36.199 35.2758C36.1225 35.3417 36.0267 35.4256 35.9118 35.5273L34.9694 34.5178Z" fill="white"/>
<path d="M35.6317 25.2103C35.3141 25.4531 35.1432 25.7414 35.1188 26.0752C35.0977 26.4066 35.1947 26.7594 35.4097 27.1338L37.5414 25.5038C37.2417 25.1585 36.9213 24.9689 36.5802 24.9349C36.2398 24.8953 35.9236 24.987 35.6317 25.2103ZM34.7671 24.0795C35.2033 23.7459 35.6589 23.5272 36.1336 23.4234C36.6084 23.3197 37.0945 23.3571 37.5921 23.5359C38.0353 23.69 38.4444 23.9491 38.8193 24.3131C39.0386 24.5267 39.3179 24.8621 39.6574 25.3194L36.0678 28.0642C36.4893 28.5755 36.9366 28.8181 37.4097 28.7919C37.6995 28.7787 37.9775 28.6703 38.2438 28.4667C38.5261 28.2509 38.6941 27.9953 38.7479 27.7C38.7779 27.5398 38.7709 27.3545 38.727 27.1441L40.1272 26.0734C40.3299 26.4115 40.4095 26.8514 40.3661 27.3929C40.307 28.2464 39.8732 28.9822 39.0648 29.6003C38.3976 30.1105 37.6446 30.3457 36.8059 30.3059C35.9671 30.266 35.1774 29.7617 34.4366 28.7929C33.7424 27.8851 33.4395 27.0136 33.5278 26.1785C33.6194 25.3409 34.0325 24.6412 34.7671 24.0795Z" fill="white"/>
<path d="M43.9293 21.1735C43.779 20.9756 43.597 20.8239 43.3831 20.7182C43.0826 20.5829 42.7552 20.6165 42.4011 20.8188C41.8962 21.1073 41.6941 21.5554 41.7948 22.1629C41.8489 22.4855 42.0021 22.8677 42.2546 23.3094C42.495 23.7302 42.7374 24.0405 42.9818 24.2403C43.4331 24.615 43.9059 24.6611 44.4003 24.3786C44.7509 24.1783 44.9458 23.9413 44.9849 23.6679C45.0239 23.3944 44.9731 23.0979 44.8323 22.7783L46.3628 21.9038C46.5882 22.3796 46.6698 22.9051 46.6077 23.4801C46.5125 24.4042 46.0039 25.1297 45.0817 25.6566C44.1596 26.1835 43.3249 26.2977 42.5776 25.9992C41.8303 25.7006 41.2072 25.1148 40.7083 24.2418C40.1454 23.2566 39.9478 22.3532 40.1156 21.5318C40.2834 20.7103 40.7898 20.0582 41.6348 19.5754C42.3536 19.1647 43.033 18.9904 43.6731 19.0525C44.3168 19.1126 44.914 19.5271 45.465 20.296L43.9293 21.1735Z" fill="white"/>
<path d="M45.4733 19.1852L44.9721 18.0623L45.8128 17.687L45.0622 16.0055L46.622 15.3092L47.3726 16.9907L48.3516 16.5537L48.8529 17.6765L47.8739 18.1136L49.2961 21.2995C49.4064 21.5466 49.5069 21.6875 49.5975 21.7222C49.6866 21.7532 49.8915 21.6971 50.2123 21.5539C50.2602 21.5325 50.31 21.5103 50.3616 21.4872C50.4153 21.4588 50.4671 21.4313 50.5171 21.4045L51.043 22.5827L50.3087 22.9437C49.5753 23.302 49.0088 23.4001 48.6092 23.238C48.3516 23.1363 48.1388 22.8974 47.9709 22.5213L46.3141 18.8099L45.4733 19.1852Z" fill="white"/>
<path d="M52.2061 19.8689C52.3374 20.1487 52.4809 20.3308 52.6366 20.4153C52.9123 20.5662 53.3241 20.5506 53.8721 20.3685C54.194 20.2616 54.4329 20.129 54.5889 19.9708C54.7487 19.8113 54.7967 19.6358 54.733 19.4442C54.6719 19.2602 54.5488 19.1458 54.3637 19.1009C54.1786 19.0561 53.5547 19.0804 52.4922 19.1739C51.7246 19.2332 51.1513 19.179 50.7722 19.0114C50.3944 18.8476 50.124 18.5204 49.961 18.0299C49.7687 17.4512 49.8299 16.8798 50.1445 16.3157C50.4618 15.7464 51.0324 15.3249 51.8563 15.0511C52.638 14.7914 53.3264 14.7371 53.9213 14.8884C54.5188 15.0345 54.9813 15.4787 55.3088 16.2209L53.6705 16.7653C53.5775 16.5622 53.4627 16.4152 53.3262 16.3244C53.0722 16.162 52.7287 16.1527 52.2957 16.2966C51.9393 16.4151 51.7029 16.5553 51.5865 16.7174C51.474 16.8782 51.4426 17.0333 51.4922 17.1827C51.5546 17.3705 51.6803 17.4798 51.8693 17.5107C52.0595 17.5453 52.6789 17.5076 53.7274 17.3975C54.4298 17.3343 54.9955 17.4038 55.4243 17.6059C55.8507 17.8132 56.1421 18.1525 56.2988 18.6239C56.5051 19.2447 56.4419 19.8295 56.1094 20.3783C55.7794 20.922 55.1316 21.3543 54.1659 21.6752C53.181 22.0024 52.3841 22.0374 51.7752 21.7802C51.1689 21.5178 50.7588 21.0648 50.5449 20.421L52.2061 19.8689Z" fill="white"/>
<path d="M59.9557 11.8446L61.2659 12.0804L61.0673 10.6342L62.1054 10.4916L62.3041 11.9378L63.5022 11.3574L63.9071 12.2128L62.6833 12.7845L63.6815 13.8641L62.9884 14.5157L61.9993 13.5021L61.2961 14.7482L60.453 14.3076L61.1291 12.998L59.7964 12.7775L59.9557 11.8446Z" fill="white"/>
<defs>
<clipPath id="bgblur_0_351_4783_clip_path" transform="translate(30 30)"><rect width="140" height="140" rx="70"/>
</clipPath></defs>
</svg>
