<svg width="24" height="24" viewBox="0 0 24 24" fill="none" xmlns="http://www.w3.org/2000/svg">
<g clip-path="url(#clip0_186_6099)">
<path d="M21.4287 2.57031L15.583 8.41603" stroke="white" stroke-width="1.5" stroke-linecap="round" stroke-linejoin="round"/>
<path d="M2.57153 2.57031L8.41725 8.41603" stroke="white" stroke-width="1.5" stroke-linecap="round" stroke-linejoin="round"/>
<path d="M2.57153 21.4277L8.41725 15.582" stroke="white" stroke-width="1.5" stroke-linecap="round" stroke-linejoin="round"/>
<path d="M21.4287 21.4277L15.583 15.582" stroke="white" stroke-width="1.5" stroke-linecap="round" stroke-linejoin="round"/>
<path d="M12 23.1412C18.1541 23.1412 23.1429 18.1524 23.1429 11.9983C23.1429 5.8443 18.1541 0.855469 12 0.855469C5.846 0.855469 0.857178 5.8443 0.857178 11.9983C0.857178 18.1524 5.846 23.1412 12 23.1412Z" stroke="white" stroke-width="1.5" stroke-linecap="round" stroke-linejoin="round"/>
<path d="M12 17.0557C14.793 17.0557 17.0572 14.7915 17.0572 11.9985C17.0572 9.20557 14.793 6.94141 12 6.94141C9.20703 6.94141 6.94287 9.20557 6.94287 11.9985C6.94287 14.7915 9.20703 17.0557 12 17.0557Z" stroke="white" stroke-width="1.5" stroke-linecap="round" stroke-linejoin="round"/>
</g>
<defs>
<clipPath id="clip0_186_6099">
<rect width="24" height="24" fill="white"/>
</clipPath>
</defs>
</svg>
