<svg width="30" height="30" viewBox="0 0 30 30" fill="none" xmlns="http://www.w3.org/2000/svg">
<g clip-path="url(#clip0_372_5)">
<path d="M28.9286 22.5V26.7857C28.9286 27.354 28.7028 27.8991 28.3009 28.3009C27.8991 28.7028 27.354 28.9286 26.7857 28.9286H22.5" stroke="white" stroke-width="1.5" stroke-linecap="round" stroke-linejoin="round"/>
<path d="M22.5 1.07153H26.7857C27.354 1.07153 27.8991 1.2973 28.3009 1.69916C28.7028 2.10103 28.9286 2.64607 28.9286 3.21439V7.5001" stroke="white" stroke-width="1.5" stroke-linecap="round" stroke-linejoin="round"/>
<path d="M1.07227 7.5001V3.21439C1.07227 2.64607 1.29803 2.10103 1.69989 1.69916C2.10176 1.2973 2.6468 1.07153 3.21512 1.07153H7.50084" stroke="white" stroke-width="1.5" stroke-linecap="round" stroke-linejoin="round"/>
<path d="M7.50084 28.9286H3.21512C2.6468 28.9286 2.10176 28.7028 1.69989 28.3009C1.29803 27.8991 1.07227 27.354 1.07227 26.7857V22.5" stroke="white" stroke-width="1.5" stroke-linecap="round" stroke-linejoin="round"/>
<path d="M24.6431 15.0001C24.6431 15.0001 20.3574 21.4287 15.0003 21.4287C9.64314 21.4287 5.35742 15.0001 5.35742 15.0001C5.35742 15.0001 9.64314 8.57153 15.0003 8.57153C20.3574 8.57153 24.6431 15.0001 24.6431 15.0001Z" stroke="white" stroke-width="1.5" stroke-linecap="round" stroke-linejoin="round"/>
<path d="M15.0011 16.0716C15.5928 16.0716 16.0725 15.5919 16.0725 15.0001C16.0725 14.4084 15.5928 13.9287 15.0011 13.9287C14.4094 13.9287 13.9297 14.4084 13.9297 15.0001C13.9297 15.5919 14.4094 16.0716 15.0011 16.0716Z" stroke="white" stroke-width="1.5" stroke-linecap="round" stroke-linejoin="round"/>
</g>
<defs>
<clipPath id="clip0_372_5">
<rect width="30" height="30" fill="white"/>
</clipPath>
</defs>
</svg>
