<svg width="20" height="20" viewBox="0 0 20 20" fill="none" xmlns="http://www.w3.org/2000/svg">
<g clip-path="url(#clip0_369_883)">
<path d="M1.29986 17.9428L0.714148 7.94284C0.701969 7.8421 0.711393 7.73992 0.741794 7.64311C0.772195 7.5463 0.822875 7.45707 0.890458 7.38138C0.95804 7.30569 1.04098 7.24527 1.13374 7.20413C1.2265 7.163 1.32696 7.14211 1.42843 7.14284H8.01415C8.17427 7.14383 8.3296 7.19754 8.45613 7.29567C8.58266 7.39379 8.67334 7.53087 8.71415 7.6857L9.28558 9.99998H18.5713C18.6701 9.99967 18.7679 10.0199 18.8585 10.0593C18.9491 10.0987 19.0306 10.1565 19.0977 10.229C19.1648 10.3015 19.2162 10.3871 19.2485 10.4805C19.2809 10.5739 19.2935 10.6729 19.2856 10.7714L18.7284 17.9143C18.6996 18.273 18.5365 18.6077 18.2717 18.8513C18.0068 19.095 17.6598 19.2297 17.2999 19.2286H2.72843C2.37305 19.2303 2.02977 19.0996 1.76561 18.8619C1.50146 18.6241 1.3354 18.2964 1.29986 17.9428Z" stroke="white" stroke-width="1.5" stroke-linecap="round" stroke-linejoin="round"/>
<path d="M5 4.28566V1.42852C5 1.23908 5.07526 1.0574 5.20921 0.923443C5.34316 0.789488 5.52485 0.714233 5.71429 0.714233H17.8571C18.0466 0.714233 18.2283 0.789488 18.3622 0.923443C18.4962 1.0574 18.5714 1.23908 18.5714 1.42852V7.1428" stroke="white" stroke-width="1.5" stroke-linecap="round" stroke-linejoin="round"/>
<path d="M10.7139 4.28564H14.9996" stroke="white" stroke-width="1.5" stroke-linecap="round" stroke-linejoin="round"/>
</g>
<defs>
<clipPath id="clip0_369_883">
<rect width="20" height="20" fill="white"/>
</clipPath>
</defs>
</svg>
