<svg width="100" height="100" viewBox="0 0 100 100" fill="none" xmlns="http://www.w3.org/2000/svg">
<path d="M71.4258 10.7141H28.5686C24.6237 10.7141 21.4258 13.9121 21.4258 17.857V53.5713C21.4258 57.5161 24.6237 60.7141 28.5686 60.7141H71.4258C75.3707 60.7141 78.5686 57.5161 78.5686 53.5713V17.857C78.5686 13.9121 75.3707 10.7141 71.4258 10.7141Z" stroke="#040618" stroke-opacity="0.1" stroke-width="1.5" stroke-linecap="round" stroke-linejoin="round"/>
<path d="M21.4255 32.1426H10.7112C8.81681 32.1426 7 32.8951 5.66045 34.2347C4.32091 35.5742 3.56836 37.391 3.56836 39.2854V71.4283C3.56836 73.3227 4.32091 75.1395 5.66045 76.4791C7 77.8186 8.81681 78.5711 10.7112 78.5711H89.2826C91.177 78.5711 92.9939 77.8186 94.3334 76.4791C95.673 75.1395 96.4255 73.3227 96.4255 71.4283V39.2854C96.4255 37.391 95.673 35.5742 94.3334 34.2347C92.9939 32.8951 91.177 32.1426 89.2826 32.1426H78.5684" stroke="#040618" stroke-opacity="0.1" stroke-width="1.5" stroke-linecap="round" stroke-linejoin="round"/>
<path d="M28.5695 78.5713L24.998 96.4284" stroke="#040618" stroke-opacity="0.1" stroke-width="1.5" stroke-linecap="round" stroke-linejoin="round"/>
<path d="M71.4258 78.5713L74.9972 96.4284" stroke="#040618" stroke-opacity="0.1" stroke-width="1.5" stroke-linecap="round" stroke-linejoin="round"/>
</svg>
