<svg width="30" height="30" viewBox="0 0 30 30" fill="none" xmlns="http://www.w3.org/2000/svg">
<g clip-path="url(#clip0_353_5578)">
<path d="M26.7859 3.21436L19.4788 10.5215" stroke="white" stroke-width="1.5" stroke-linecap="round" stroke-linejoin="round"/>
<path d="M3.21436 3.21436L10.5215 10.5215" stroke="white" stroke-width="1.5" stroke-linecap="round" stroke-linejoin="round"/>
<path d="M3.21436 26.7859L10.5215 19.4788" stroke="white" stroke-width="1.5" stroke-linecap="round" stroke-linejoin="round"/>
<path d="M26.7859 26.7859L19.4788 19.4788" stroke="white" stroke-width="1.5" stroke-linecap="round" stroke-linejoin="round"/>
<path d="M15.0001 28.9287C22.6926 28.9287 28.9287 22.6926 28.9287 15.0001C28.9287 7.30757 22.6926 1.07153 15.0001 1.07153C7.30757 1.07153 1.07153 7.30757 1.07153 15.0001C1.07153 22.6926 7.30757 28.9287 15.0001 28.9287Z" stroke="white" stroke-width="1.5" stroke-linecap="round" stroke-linejoin="round"/>
<path d="M15.0001 21.3216C18.4914 21.3216 21.3216 18.4914 21.3216 15.0001C21.3216 11.5089 18.4914 8.67871 15.0001 8.67871C11.5089 8.67871 8.67871 11.5089 8.67871 15.0001C8.67871 18.4914 11.5089 21.3216 15.0001 21.3216Z" stroke="white" stroke-width="1.5" stroke-linecap="round" stroke-linejoin="round"/>
</g>
<defs>
<clipPath id="clip0_353_5578">
<rect width="30" height="30" fill="white"/>
</clipPath>
</defs>
</svg>
