<svg width="100" height="100" viewBox="0 0 100 100" fill="none" xmlns="http://www.w3.org/2000/svg">
<path d="M53.6084 10.252C53.8153 10.1536 54.0488 10.159 54.2471 10.252H76V11.002L76.0205 10.252C77.3369 10.2881 78.627 10.634 79.7852 11.2607C80.9389 11.8852 81.9295 12.7719 82.6787 13.8486H82.6797L95.6797 31.8486L95.6836 31.8545C96.7454 33.3549 97.2757 35.1668 97.1904 37.0029C97.105 38.8391 96.4084 40.5948 95.2119 41.9902L95.209 41.9932L56.2207 86.9072C55.485 87.8496 54.5456 88.6137 53.4717 89.1396C52.3911 89.6688 51.2032 89.9443 50 89.9443C48.7968 89.9443 47.6089 89.6689 46.5283 89.1396C45.4543 88.6136 44.5141 87.8499 43.7783 86.9072L4.79102 41.9932L4.78809 41.9902C3.59161 40.5948 2.89501 38.8391 2.80957 37.0029C2.72427 35.167 3.25479 33.3548 4.31641 31.8545L4.32031 31.8486L17.3203 13.8486C18.0695 12.7718 19.0611 11.8853 20.2148 11.2607C21.373 10.634 22.6631 10.2881 23.9795 10.252H45.9678C46.166 10.1589 46.3996 10.1537 46.6064 10.252H53.6084ZM4.625 38.6807C4.8981 39.5316 5.3374 40.3263 5.92676 41.0137L44.9238 85.9385L44.9502 85.9707C45.5477 86.7405 46.3133 87.3643 47.1885 87.793C47.7375 88.0618 48.321 88.2489 48.9199 88.3516L28.3564 38.6807H4.625ZM71.7842 38.6807L51.083 88.3506C51.681 88.2478 52.2633 88.0614 52.8115 87.793C53.6868 87.3643 54.4532 86.7406 55.0508 85.9707L55.0762 85.9385L94.0732 41.0137C94.6626 40.3263 95.1029 39.5316 95.376 38.6807H71.7842ZM29.9805 38.6807L50.002 87.0439L70.1602 38.6807H29.9805ZM23.6162 11.7744C22.6765 11.8557 21.7618 12.1298 20.9297 12.5801C19.9786 13.0948 19.1611 13.8261 18.5449 14.7148C18.5423 14.7186 18.5398 14.7229 18.5371 14.7266L5.53711 32.7266C4.67108 33.9531 4.23787 35.4336 4.30762 36.9336C4.31146 37.0162 4.31834 37.0985 4.3252 37.1807H28.4473L44.8623 11.752H24.0205L23.6162 11.7744ZM30.2314 37.1807H69.9141L53.5664 11.752H46.6475L30.2314 37.1807ZM71.6963 37.1807H95.6758C95.6826 37.0985 95.6885 37.0162 95.6924 36.9336C95.7622 35.4312 95.3277 33.9484 94.459 32.7207V32.7197L81.4639 14.7266C81.461 14.7227 81.4578 14.7188 81.4551 14.7148C80.839 13.8261 80.0223 13.0948 79.0713 12.5801C78.239 12.1297 77.3237 11.8556 76.3838 11.7744L75.9795 11.752H55.3496L71.6963 37.1807Z" fill="#040618" fill-opacity="0.1"/>
</svg>
