<svg width="24" height="24" viewBox="0 0 24 24" fill="none" xmlns="http://www.w3.org/2000/svg">
<g clip-path="url(#clip0_186_6091)">
<path d="M2.57152 23.1445L21.4287 23.1445C22.3754 23.1445 23.1429 22.377 23.1429 21.4302L23.1429 2.5731C23.1429 1.62633 22.3754 0.858816 21.4287 0.858816L2.57152 0.858816C1.62474 0.858816 0.857229 1.62633 0.857229 2.5731L0.857229 21.4302C0.857229 22.377 1.62474 23.1445 2.57152 23.1445Z" stroke="white" stroke-width="1.5" stroke-linecap="round" stroke-linejoin="round"/>
<path d="M17.1429 11.1405C17.1429 12.5045 16.6011 13.8126 15.6366 14.777C14.6721 15.7415 13.364 16.2833 12 16.2833C10.6361 16.2833 9.32796 15.7415 8.36349 14.777C7.39901 13.8126 6.85718 12.5045 6.85718 11.1405V7.3862C6.85689 7.24054 6.89372 7.0972 6.96421 6.96972C7.0347 6.84224 7.13651 6.73483 7.26004 6.65763C7.38356 6.58043 7.52472 6.53598 7.6702 6.52848C7.81567 6.52098 7.96066 6.55068 8.09146 6.61477L12 8.56906L15.9086 6.61477C16.0394 6.55068 16.1844 6.52098 16.3299 6.52848C16.4753 6.53598 16.6165 6.58043 16.74 6.65763C16.8636 6.73483 16.9654 6.84224 17.0359 6.96972C17.1063 7.0972 17.1432 7.24054 17.1429 7.3862V11.1405Z" stroke="white" stroke-width="1.5" stroke-linecap="round" stroke-linejoin="round"/>
<path d="M12 16.2852V23.1423" stroke="white" stroke-width="1.5" stroke-linecap="round" stroke-linejoin="round"/>
<path d="M12 23.1412L16.2857 18.8555" stroke="white" stroke-width="1.5" stroke-linecap="round" stroke-linejoin="round"/>
<path d="M11.9999 23.1412L7.71423 18.8555" stroke="white" stroke-width="1.5" stroke-linecap="round" stroke-linejoin="round"/>
</g>
<defs>
<clipPath id="clip0_186_6091">
<rect width="24" height="24" fill="white"/>
</clipPath>
</defs>
</svg>
