<svg width="44" height="44" viewBox="0 0 44 44" fill="none" xmlns="http://www.w3.org/2000/svg">
<path d="M32.0833 38.5C37.6522 38.5 42.1667 33.9855 42.1667 28.4167C42.1667 24.3034 40.0254 20.3236 36.8296 19.5556C35.5968 19.2594 34.6151 17.6774 34.8261 15.8715C35.1084 13.4542 37.2943 11.0121 41.6224 9.0876C42.5861 8.65909 42.1826 7.20942 41.1361 7.34044C29.8564 8.75263 22.0376 16.1063 22.0001 26.5103C22 33.6654 26.2273 38.5 32.0833 38.5Z" fill="#040618" fill-opacity="0.1"/>
<path d="M10.0832 38.5C15.6521 38.5 20.1665 33.9855 20.1665 28.4167C20.1665 24.3034 18.0253 20.3236 14.8295 19.5556C13.5967 19.2594 12.615 17.6774 12.8259 15.8715C13.1083 13.4542 15.2942 11.0121 19.6223 9.0876C20.586 8.65909 20.1825 7.20942 19.136 7.34044C7.85629 8.75263 0.0375119 16.1063 2.80167e-06 26.5103C-0.000131671 33.6654 4.22715 38.5 10.0832 38.5Z" fill="#040618" fill-opacity="0.1"/>
</svg>
