<svg width="100" height="100" viewBox="0 0 100 100" fill="none" xmlns="http://www.w3.org/2000/svg">
<path d="M89.4648 3C93.8238 3.00015 97.3574 6.53454 97.3574 10.8936V89.4648C97.3572 93.8237 93.8237 97.3573 89.4648 97.3574H10.8936C6.53458 97.3574 3.00022 93.8238 3 89.4648V10.8936C3 6.53445 6.53445 3 10.8936 3H89.4648ZM10.8936 4.5C7.36288 4.5 4.5 7.36288 4.5 10.8936V89.4648C4.50022 92.9953 7.36301 95.8574 10.8936 95.8574H48.3691L31.792 79.2803C31.4992 78.9874 31.4991 78.5126 31.792 78.2197C32.0849 77.9269 32.5597 77.9269 32.8525 78.2197L49.4297 94.7969V68.7715C43.8196 68.582 38.4785 66.2723 34.4961 62.29C30.3369 58.1308 28.0001 52.4894 28 46.6074V30.9639C27.9989 30.2302 28.185 29.5083 28.54 28.8662C28.8954 28.2236 29.4085 27.6822 30.0312 27.293C30.6539 26.9038 31.3653 26.6795 32.0986 26.6416C32.7405 26.6085 33.3808 26.7191 33.9727 26.9639L34.2227 27.0762L50.1777 35.0537L66.1289 27.0791L66.1348 27.0762C66.794 26.7533 67.5247 26.6039 68.2578 26.6416C68.9912 26.6794 69.7034 26.9038 70.3262 27.293C70.9488 27.6822 71.4621 28.2236 71.8174 28.8662C72.1724 29.5083 72.3585 30.2302 72.3574 30.9639V46.6074C72.3574 52.4894 70.0205 58.1308 65.8613 62.29C61.8794 66.2719 56.5391 68.5816 50.9297 68.7715V94.7969L67.5068 78.2197C67.7997 77.9271 68.2746 77.927 68.5674 78.2197C68.8601 78.5126 68.86 78.9874 68.5674 79.2803L51.9902 95.8574H89.4648C92.9953 95.8573 95.8572 92.9952 95.8574 89.4648V10.8936C95.8574 7.36297 92.9954 4.50015 89.4648 4.5H10.8936ZM32.1758 28.1396C31.6972 28.1644 31.2326 28.3105 30.8262 28.5645C30.4197 28.8185 30.0846 29.1723 29.8525 29.5918C29.6205 30.0114 29.4991 30.4834 29.5 30.9629V46.6074C29.5001 52.0916 31.6788 57.3516 35.5566 61.2295C39.4346 65.1074 44.6945 67.2861 50.1787 67.2861C55.6629 67.2861 60.9228 65.1074 64.8008 61.2295C68.6787 57.3516 70.8574 52.0916 70.8574 46.6074V30.9629C70.8584 30.4834 70.7369 30.0114 70.5049 29.5918C70.2729 29.1723 69.9378 28.8185 69.5312 28.5645C69.1247 28.3103 68.6595 28.1643 68.1807 28.1396C67.7019 28.115 67.2244 28.2129 66.7939 28.4238L50.5137 36.5635C50.3026 36.669 50.0539 36.669 49.8428 36.5635L33.5625 28.4229C33.1321 28.2121 32.6544 28.115 32.1758 28.1396Z" fill="#040618" fill-opacity="0.1"/>
</svg>
