<svg width="30" height="30" viewBox="0 0 30 30" fill="none" xmlns="http://www.w3.org/2000/svg">
<g clip-path="url(#clip0_356_8231)">
<path d="M1.94979 26.9143L1.07122 11.9143C1.05295 11.7632 1.06709 11.6099 1.11269 11.4647C1.15829 11.3194 1.23431 11.1856 1.33569 11.0721C1.43706 10.9585 1.56146 10.8679 1.70061 10.8062C1.83975 10.7445 1.99045 10.7132 2.14265 10.7143H12.0212C12.2614 10.7157 12.4944 10.7963 12.6842 10.9435C12.874 11.0907 13.01 11.2963 13.0712 11.5285L13.9284 15H27.8569C28.0051 14.9995 28.1518 15.0298 28.2878 15.0889C28.4237 15.148 28.5458 15.2347 28.6465 15.3435C28.7472 15.4522 28.8243 15.5807 28.8728 15.7207C28.9213 15.8608 28.9402 16.0094 28.9284 16.1571L28.0926 26.8714C28.0495 27.4095 27.8048 27.9115 27.4075 28.277C27.0102 28.6425 26.4896 28.8446 25.9498 28.8428H4.09265C3.55958 28.8455 3.04465 28.6494 2.64842 28.2928C2.25218 27.9362 2.00309 27.4447 1.94979 26.9143Z" stroke="white" stroke-width="1.5" stroke-linecap="round" stroke-linejoin="round"/>
<path d="M7.5 6.42855V2.14284C7.5 1.85868 7.61288 1.58616 7.81381 1.38523C8.01475 1.18429 8.28727 1.07141 8.57143 1.07141H26.7857C27.0699 1.07141 27.3424 1.18429 27.5433 1.38523C27.7443 1.58616 27.8571 1.85868 27.8571 2.14284V10.7143" stroke="white" stroke-width="1.5" stroke-linecap="round" stroke-linejoin="round"/>
<path d="M16.0713 6.42859H22.4999" stroke="white" stroke-width="1.5" stroke-linecap="round" stroke-linejoin="round"/>
</g>
<defs>
<clipPath id="clip0_356_8231">
<rect width="30" height="30" fill="white"/>
</clipPath>
</defs>
</svg>
