<svg width="20" height="20" viewBox="0 0 20 20" fill="none" xmlns="http://www.w3.org/2000/svg">
<g clip-path="url(#clip0_369_891)">
<path d="M2.1423 19.2856L17.8566 19.2856C18.6456 19.2856 19.2852 18.6461 19.2852 17.8571L19.2852 2.14279C19.2852 1.35381 18.6456 0.714214 17.8566 0.714214L2.1423 0.714214C1.35332 0.714214 0.713726 1.35381 0.713726 2.14279L0.713726 17.8571C0.713726 18.6461 1.35332 19.2856 2.1423 19.2856Z" stroke="white" stroke-width="1.5" stroke-linecap="round" stroke-linejoin="round"/>
<path d="M14.2853 9.28569C14.2853 10.4223 13.8338 11.5124 13.03 12.3162C12.2263 13.1199 11.1362 13.5714 9.99958 13.5714C8.86294 13.5714 7.77285 13.1199 6.96913 12.3162C6.1654 11.5124 5.71387 10.4223 5.71387 9.28569V6.15712C5.71363 6.03573 5.74432 5.91629 5.80306 5.81005C5.8618 5.70382 5.94664 5.61432 6.04958 5.54998C6.15252 5.48564 6.27016 5.4486 6.39138 5.44235C6.51261 5.4361 6.63343 5.46085 6.74244 5.51427L9.99958 7.14284L13.2567 5.51427C13.3657 5.46085 13.4866 5.4361 13.6078 5.44235C13.729 5.4486 13.8466 5.48564 13.9496 5.54998C14.0525 5.61432 14.1374 5.70382 14.1961 5.81005C14.2548 5.91629 14.2855 6.03573 14.2853 6.15712V9.28569Z" stroke="white" stroke-width="1.5" stroke-linecap="round" stroke-linejoin="round"/>
<path d="M10 13.5714V19.2857" stroke="white" stroke-width="1.5" stroke-linecap="round" stroke-linejoin="round"/>
<path d="M10 19.2857L13.5714 15.7142" stroke="white" stroke-width="1.5" stroke-linecap="round" stroke-linejoin="round"/>
<path d="M10.0001 19.2857L6.42871 15.7142" stroke="white" stroke-width="1.5" stroke-linecap="round" stroke-linejoin="round"/>
</g>
<defs>
<clipPath id="clip0_369_891">
<rect width="20" height="20" fill="white"/>
</clipPath>
</defs>
</svg>
