<svg width="30" height="30" viewBox="0 0 30 30" fill="none" xmlns="http://www.w3.org/2000/svg">
<path d="M15 21.4714V23.6357" stroke="white" stroke-width="1.5" stroke-linecap="round" stroke-linejoin="round"/>
<path d="M15 10.7357V12.75" stroke="white" stroke-width="1.5" stroke-linecap="round" stroke-linejoin="round"/>
<path d="M14.9997 28.9072C22.4997 28.9072 27.8569 26.2501 27.8569 20.3358C27.8569 13.9072 24.6426 9.62149 18.214 6.4072L20.7426 3.15006C20.871 2.93635 20.9407 2.69249 20.9445 2.44317C20.9484 2.19386 20.8862 1.94796 20.7644 1.73041C20.6426 1.51286 20.4654 1.33138 20.2508 1.20437C20.0362 1.07737 19.7919 1.00934 19.5426 1.0072H10.4569C10.2075 1.00934 9.9632 1.07737 9.74862 1.20437C9.53405 1.33138 9.35687 1.51286 9.23504 1.73041C9.11321 1.94796 9.05106 2.19386 9.0549 2.44317C9.05873 2.69249 9.12841 2.93635 9.25686 3.15006L11.7854 6.42863C5.35686 9.66435 2.14258 13.9501 2.14258 20.3786C2.14258 26.2501 7.49972 28.9072 14.9997 28.9072Z" stroke="white" stroke-width="1.5" stroke-linecap="round" stroke-linejoin="round"/>
<path d="M12.8573 20.4858C13.1188 20.7962 13.4479 21.0425 13.8193 21.2059C14.1908 21.3694 14.5947 21.4456 15.0002 21.4287C15.6199 21.4709 16.2319 21.2712 16.7074 20.8716C17.183 20.472 17.4851 19.9035 17.5502 19.2858C17.4851 18.6681 17.183 18.0996 16.7074 17.7C16.2319 17.3004 15.6199 17.1007 15.0002 17.1429C14.3805 17.1852 13.7685 16.9855 13.2929 16.5859C12.8174 16.1863 12.5153 15.6178 12.4502 15.0001C12.5101 14.3802 12.8107 13.8085 13.2875 13.4078C13.7643 13.0071 14.3792 12.8095 15.0002 12.8572C15.3985 12.8329 15.7973 12.8971 16.1678 13.0453C16.5384 13.1935 16.8714 13.422 17.1431 13.7144" stroke="white" stroke-width="1.5" stroke-linecap="round" stroke-linejoin="round"/>
</svg>
