<svg width="24" height="24" viewBox="0 0 24 24" fill="none" xmlns="http://www.w3.org/2000/svg">
<path d="M18.2394 2.63672H5.75939C5.47167 2.64462 5.18985 2.72012 4.93671 2.85711C4.68357 2.9941 4.46623 3.18874 4.30225 3.42529L1.18225 7.74529C0.950574 8.07267 0.834873 8.46805 0.853507 8.86869C0.872141 9.26932 1.02404 9.65225 1.28511 9.95672L10.6451 20.7396C10.8053 20.9461 11.0107 21.1132 11.2454 21.2281C11.4801 21.3431 11.738 21.4028 11.9994 21.4028C12.2608 21.4028 12.5187 21.3431 12.7534 21.2281C12.9881 21.1132 13.1934 20.9461 13.3537 20.7396L22.7137 9.95672C22.9747 9.65225 23.1266 9.26932 23.1453 8.86869C23.1639 8.46805 23.0482 8.07267 22.8165 7.74529L19.6965 3.42529C19.5326 3.18874 19.3152 2.9941 19.0621 2.85711C18.8089 2.72012 18.5271 2.64462 18.2394 2.63672V2.63672Z" stroke="white" stroke-width="1.5" stroke-linecap="round" stroke-linejoin="round"/>
<path d="M11.1086 2.62109L6.92578 9.10109L12.0001 21.3582" stroke="white" stroke-width="1.5" stroke-linecap="round" stroke-linejoin="round"/>
<path d="M12.9429 2.62109L17.1086 9.10109L12 21.3582" stroke="white" stroke-width="1.5" stroke-linecap="round" stroke-linejoin="round"/>
<path d="M0.890625 9.10156H23.1078" stroke="white" stroke-width="1.5" stroke-linecap="round" stroke-linejoin="round"/>
</svg>
