<svg width="30" height="30" viewBox="0 0 30 30" fill="none" xmlns="http://www.w3.org/2000/svg">
<path d="M21.4286 3.21484H8.57151C7.38804 3.21484 6.42865 4.17423 6.42865 5.3577V16.072C6.42865 17.2555 7.38804 18.2148 8.57151 18.2148H21.4286C22.6121 18.2148 23.5715 17.2555 23.5715 16.072V5.3577C23.5715 4.17423 22.6121 3.21484 21.4286 3.21484Z" stroke="white" stroke-width="1.5" stroke-linecap="round" stroke-linejoin="round"/>
<path d="M6.42868 9.64258H3.21439C2.64607 9.64258 2.10103 9.86834 1.69916 10.2702C1.2973 10.6721 1.07153 11.2171 1.07153 11.7854V21.4283C1.07153 21.9966 1.2973 22.5417 1.69916 22.9435C2.10103 23.3454 2.64607 23.5711 3.21439 23.5711H26.7858C27.3541 23.5711 27.8992 23.3454 28.301 22.9435C28.7029 22.5417 28.9287 21.9966 28.9287 21.4283V11.7854C28.9287 11.2171 28.7029 10.6721 28.301 10.2702C27.8992 9.86834 27.3541 9.64258 26.7858 9.64258H23.5715" stroke="white" stroke-width="1.5" stroke-linecap="round" stroke-linejoin="round"/>
<path d="M8.57143 23.5723L7.5 28.9294" stroke="white" stroke-width="1.5" stroke-linecap="round" stroke-linejoin="round"/>
<path d="M21.4287 23.5723L22.5001 28.9294" stroke="white" stroke-width="1.5" stroke-linecap="round" stroke-linejoin="round"/>
</svg>
