<svg width="30" height="30" viewBox="0 0 30 30" fill="none" xmlns="http://www.w3.org/2000/svg">
<path d="M26.7857 2.14258H3.21427C2.0308 2.14258 1.07141 3.10197 1.07141 4.28544V12.8569C1.07141 14.0403 2.0308 14.9997 3.21427 14.9997H26.7857C27.9692 14.9997 28.9286 14.0403 28.9286 12.8569V4.28544C28.9286 3.10197 27.9692 2.14258 26.7857 2.14258Z" stroke="white" stroke-width="1.5" stroke-linecap="round" stroke-linejoin="round"/>
<path d="M7.50002 9.64286C8.09175 9.64286 8.57145 9.16316 8.57145 8.57143C8.57145 7.97969 8.09175 7.5 7.50002 7.5C6.90828 7.5 6.42859 7.97969 6.42859 8.57143C6.42859 9.16316 6.90828 9.64286 7.50002 9.64286Z" stroke="white" stroke-width="1.5" stroke-linecap="round" stroke-linejoin="round"/>
<path d="M16.0714 8.57031H23.5714" stroke="white" stroke-width="1.5" stroke-linecap="round" stroke-linejoin="round"/>
<path d="M3.21427 15C2.64595 15 2.1009 15.2258 1.69904 15.6276C1.29718 16.0295 1.07141 16.5745 1.07141 17.1429V25.7143C1.07141 26.2826 1.29718 26.8277 1.69904 27.2295C2.1009 27.6314 2.64595 27.8571 3.21427 27.8571H26.7857C27.354 27.8571 27.8991 27.6314 28.3009 27.2295C28.7028 26.8277 28.9286 26.2826 28.9286 25.7143V17.1429C28.9286 16.5745 28.7028 16.0295 28.3009 15.6276C27.8991 15.2258 27.354 15 26.7857 15" stroke="white" stroke-width="1.5" stroke-linecap="round" stroke-linejoin="round"/>
<path d="M7.50002 22.5003C8.09175 22.5003 8.57145 22.0206 8.57145 21.4289C8.57145 20.8371 8.09175 20.3574 7.50002 20.3574C6.90828 20.3574 6.42859 20.8371 6.42859 21.4289C6.42859 22.0206 6.90828 22.5003 7.50002 22.5003Z" stroke="white" stroke-width="1.5" stroke-linecap="round" stroke-linejoin="round"/>
<path d="M16.0714 21.4277H23.5714" stroke="white" stroke-width="1.5" stroke-linecap="round" stroke-linejoin="round"/>
</svg>
