<svg width="30" height="30" viewBox="0 0 30 30" fill="none" xmlns="http://www.w3.org/2000/svg">
<path d="M9.64287 27.8577C14.3767 27.8577 18.2143 24.0201 18.2143 19.2863C18.2143 14.5524 14.3767 10.7148 9.64287 10.7148C4.909 10.7148 1.07144 14.5524 1.07144 19.2863C1.07144 24.0201 4.909 27.8577 9.64287 27.8577Z" stroke="#040618" stroke-width="1.5" stroke-linecap="round" stroke-linejoin="round"/>
<path d="M20.3572 27.8577C25.091 27.8577 28.9286 24.0201 28.9286 19.2863C28.9286 14.5524 25.091 10.7148 20.3572 10.7148C15.6233 10.7148 11.7857 14.5524 11.7857 19.2863C11.7857 24.0201 15.6233 27.8577 20.3572 27.8577Z" stroke="#040618" stroke-width="1.5" stroke-linecap="round" stroke-linejoin="round"/>
<path d="M15 19.2854C19.7339 19.2854 23.5714 15.4479 23.5714 10.714C23.5714 5.98014 19.7339 2.14258 15 2.14258C10.2661 2.14258 6.42859 5.98014 6.42859 10.714C6.42859 15.4479 10.2661 19.2854 15 19.2854Z" stroke="#040618" stroke-width="1.5" stroke-linecap="round" stroke-linejoin="round"/>
</svg>
