<svg width="30" height="30" viewBox="0 0 30 30" fill="none" xmlns="http://www.w3.org/2000/svg">
<path d="M25.7143 4.28516H27.8571C28.1413 4.28516 28.4138 4.39804 28.6147 4.59897C28.8157 4.7999 28.9286 5.07242 28.9286 5.35658V22.4994C28.9286 22.7836 28.8157 23.0561 28.6147 23.2571C28.4138 23.458 28.1413 23.5709 27.8571 23.5709H2.14284C1.85868 23.5709 1.58616 23.458 1.38523 23.2571C1.18429 23.0561 1.07141 22.7836 1.07141 22.4994V5.35658C1.07141 5.07242 1.18429 4.7999 1.38523 4.59897C1.58616 4.39804 1.85868 4.28516 2.14284 4.28516H4.2857" stroke="white" stroke-width="1.5" stroke-linecap="round" stroke-linejoin="round"/>
<path d="M12.8571 23.5703L10.7142 28.9275" stroke="white" stroke-width="1.5" stroke-linecap="round" stroke-linejoin="round"/>
<path d="M17.1428 23.5703L19.2857 28.9275" stroke="white" stroke-width="1.5" stroke-linecap="round" stroke-linejoin="round"/>
<path d="M8.57141 28.9277H21.4286" stroke="white" stroke-width="1.5" stroke-linecap="round" stroke-linejoin="round"/>
<path d="M15.0642 4.28516V7.49944" stroke="white" stroke-width="1.5" stroke-linecap="round" stroke-linejoin="round"/>
<path d="M8.57141 8.03516L11.3571 9.6423" stroke="white" stroke-width="1.5" stroke-linecap="round" stroke-linejoin="round"/>
<path d="M8.57141 15.5349L11.3571 13.9277" stroke="white" stroke-width="1.5" stroke-linecap="round" stroke-linejoin="round"/>
<path d="M15.0642 19.2846V16.0703" stroke="white" stroke-width="1.5" stroke-linecap="round" stroke-linejoin="round"/>
<path d="M21.5571 15.5349L18.7714 13.9277" stroke="white" stroke-width="1.5" stroke-linecap="round" stroke-linejoin="round"/>
<path d="M21.5571 8.03516L18.7714 9.6423" stroke="white" stroke-width="1.5" stroke-linecap="round" stroke-linejoin="round"/>
<path d="M15.0643 16.0714C17.4312 16.0714 19.35 14.1526 19.35 11.7857C19.35 9.41878 17.4312 7.5 15.0643 7.5C12.6973 7.5 10.7786 9.41878 10.7786 11.7857C10.7786 14.1526 12.6973 16.0714 15.0643 16.0714Z" stroke="white" stroke-width="1.5" stroke-linecap="round" stroke-linejoin="round"/>
</svg>
