<svg width="30" height="30" viewBox="0 0 30 30" fill="none" xmlns="http://www.w3.org/2000/svg">
<g clip-path="url(#clip0_356_8245)">
<path d="M3.21345 28.9285L26.7849 28.9285C27.9683 28.9285 28.9277 27.9691 28.9277 26.7856L28.9277 3.21418C28.9277 2.03071 27.9683 1.07133 26.7849 1.07133L3.21345 1.07133C2.02998 1.07133 1.07059 2.03071 1.07059 3.21418L1.07059 26.7856C1.07059 27.9691 2.02998 28.9285 3.21345 28.9285Z" stroke="white" stroke-width="1.5" stroke-linecap="round" stroke-linejoin="round"/>
<path d="M21.4284 13.9285C21.4284 15.6335 20.7511 17.2686 19.5455 18.4742C18.34 19.6798 16.7048 20.3571 14.9999 20.3571C13.2949 20.3571 11.6598 19.6798 10.4542 18.4742C9.24859 17.2686 8.57129 15.6335 8.57129 13.9285V9.23568C8.57093 9.0536 8.61697 8.87443 8.70508 8.71508C8.79319 8.55574 8.92046 8.42147 9.07486 8.32497C9.22927 8.22846 9.40572 8.1729 9.58756 8.16353C9.76941 8.15416 9.95064 8.19128 10.1141 8.2714L14.9999 10.7143L19.8856 8.2714C20.0491 8.19128 20.2303 8.15416 20.4122 8.16353C20.594 8.1729 20.7705 8.22846 20.9249 8.32497C21.0793 8.42147 21.2065 8.55574 21.2946 8.71508C21.3828 8.87443 21.4288 9.0536 21.4284 9.23568V13.9285Z" stroke="white" stroke-width="1.5" stroke-linecap="round" stroke-linejoin="round"/>
<path d="M15 20.3571V28.9285" stroke="white" stroke-width="1.5" stroke-linecap="round" stroke-linejoin="round"/>
<path d="M15 28.9286L20.3571 23.5714" stroke="white" stroke-width="1.5" stroke-linecap="round" stroke-linejoin="round"/>
<path d="M14.9997 28.9286L9.64258 23.5714" stroke="white" stroke-width="1.5" stroke-linecap="round" stroke-linejoin="round"/>
</g>
<defs>
<clipPath id="clip0_356_8245">
<rect width="30" height="30" fill="white"/>
</clipPath>
</defs>
</svg>
