<svg width="25" height="25" viewBox="0 0 25 25" fill="none" xmlns="http://www.w3.org/2000/svg">
<g clip-path="url(#clip0_364_1669)">
<path d="M17.8594 2.67969H7.14509C6.15887 2.67969 5.35938 3.47918 5.35938 4.4654V13.394C5.35938 14.3802 6.15887 15.1797 7.14509 15.1797H17.8594C18.8456 15.1797 19.6451 14.3802 19.6451 13.394V4.4654C19.6451 3.47918 18.8456 2.67969 17.8594 2.67969Z" stroke="white" stroke-width="1.5" stroke-linecap="round" stroke-linejoin="round"/>
<path d="M5.35882 8.03516H2.68025C2.20664 8.03516 1.75244 8.22329 1.41755 8.55818C1.08267 8.89307 0.894531 9.34727 0.894531 9.82087V17.8566C0.894531 18.3302 1.08267 18.7844 1.41755 19.1193C1.75244 19.4542 2.20664 19.6423 2.68025 19.6423H22.3231C22.7967 19.6423 23.2509 19.4542 23.5858 19.1193C23.9207 18.7844 24.1088 18.3302 24.1088 17.8566V9.82087C24.1088 9.34727 23.9207 8.89307 23.5858 8.55818C23.2509 8.22329 22.7967 8.03516 22.3231 8.03516H19.6445" stroke="white" stroke-width="1.5" stroke-linecap="round" stroke-linejoin="round"/>
<path d="M7.14286 19.6445L6.25 24.1088" stroke="white" stroke-width="1.5" stroke-linecap="round" stroke-linejoin="round"/>
<path d="M17.8594 19.6445L18.7522 24.1088" stroke="white" stroke-width="1.5" stroke-linecap="round" stroke-linejoin="round"/>
</g>
<defs>
<clipPath id="clip0_364_1669">
<rect width="25" height="25" fill="white"/>
</clipPath>
</defs>
</svg>
