<svg width="30" height="30" viewBox="0 0 30 30" fill="none" xmlns="http://www.w3.org/2000/svg">
<g clip-path="url(#clip0_251_137)">
<path d="M25.1786 21.4294C25.9202 21.4294 26.6453 21.6493 27.2619 22.0614C27.8786 22.4735 28.3593 23.0591 28.6431 23.7443C28.9269 24.4296 29.0012 25.1836 28.8565 25.911C28.7118 26.6384 28.3547 27.3066 27.8302 27.8311C27.3058 28.3555 26.6376 28.7127 25.9101 28.8574C25.1827 29.002 24.4287 28.9278 23.7435 28.644C23.0583 28.3601 22.4726 27.8795 22.0605 27.2628C21.6485 26.6461 21.4286 25.9211 21.4286 25.1794V4.82227C21.4286 4.08059 21.6485 3.35556 22.0605 2.73888C22.4726 2.12219 23.0583 1.64155 23.7435 1.35772C24.4287 1.07389 25.1827 0.999628 25.9101 1.14432C26.6376 1.28902 27.3058 1.64617 27.8302 2.17062C28.3547 2.69506 28.7118 3.36325 28.8565 4.09068C29.0012 4.81811 28.9269 5.57211 28.6431 6.25733C28.3593 6.94255 27.8786 7.52822 27.2619 7.94028C26.6453 8.35233 25.9202 8.57227 25.1786 8.57227H4.82141C4.07973 8.57227 3.35471 8.35233 2.73802 7.94028C2.12134 7.52822 1.64069 6.94255 1.35686 6.25733C1.07304 5.57211 0.998773 4.81811 1.14347 4.09068C1.28816 3.36325 1.64532 2.69506 2.16976 2.17062C2.69421 1.64617 3.3624 1.28902 4.08982 1.14432C4.81725 0.999628 5.57125 1.07389 6.25648 1.35772C6.9417 1.64155 7.52737 2.12219 7.93942 2.73888C8.35148 3.35556 8.57141 4.08059 8.57141 4.82227V25.1794C8.57141 25.9211 8.35148 26.6461 7.93942 27.2628C7.52737 27.8795 6.9417 28.3601 6.25648 28.644C5.57125 28.9278 4.81725 29.002 4.08982 28.8574C3.3624 28.7127 2.69421 28.3555 2.16976 27.8311C1.64532 27.3066 1.28816 26.6384 1.14347 25.911C0.998773 25.1836 1.07304 24.4296 1.35686 23.7443C1.64069 23.0591 2.12134 22.4735 2.73802 22.0614C3.35471 21.6493 4.07973 21.4294 4.82141 21.4294H25.1786Z" stroke="white" stroke-width="1.5" stroke-linecap="round" stroke-linejoin="round"/>
</g>
<defs>
<clipPath id="clip0_251_137">
<rect width="30" height="30" fill="white"/>
</clipPath>
</defs>
</svg>
